<svg width="1001" height="543" viewBox="0 0 1001 543" fill="none" xmlns="http://www.w3.org/2000/svg">
<rect width="1000" height="542.359" transform="translate(0.492188)" fill="white"/>
<rect x="28.5205" y="188.341" width="415.769" height="165.678" rx="20" fill="#2A5D49"/>
<path d="M128.593 255.528V268.185H117.718V303.341H101.593V268.185H94.4677V255.528H101.593V253.091C101.593 249.466 102.405 246.278 104.03 243.528C105.655 240.716 107.874 238.497 110.686 236.872C113.499 235.247 116.686 234.435 120.249 234.435C122.624 234.435 124.655 234.653 126.343 235.091C128.093 235.528 129.593 236.091 130.843 236.778V249.903C128.905 248.841 126.561 248.31 123.811 248.31C122.374 248.31 120.999 248.778 119.686 249.716C118.374 250.591 117.718 251.935 117.718 253.747V255.528H128.593ZM154.655 254.122C157.155 254.122 159.593 254.685 161.968 255.81C164.405 256.872 166.405 258.247 167.968 259.935V255.528H184.093V303.341H167.968V295.372C166.78 297.997 164.968 300.216 162.53 302.028C160.093 303.841 157.155 304.747 153.718 304.747C150.155 304.747 146.811 303.841 143.686 302.028C140.561 300.216 137.999 297.435 135.999 293.685C134.061 289.872 133.093 285.091 133.093 279.341C133.093 273.966 134.061 269.403 135.999 265.653C137.999 261.903 140.624 259.06 143.874 257.122C147.186 255.122 150.78 254.122 154.655 254.122ZM158.03 269.872C155.718 269.872 153.78 270.81 152.218 272.685C150.718 274.56 149.968 276.778 149.968 279.341C149.968 281.903 150.749 284.06 152.311 285.81C153.874 287.56 155.936 288.435 158.499 288.435C159.874 288.435 161.28 288.091 162.718 287.403C164.155 286.653 165.374 285.56 166.374 284.122C167.436 282.622 167.968 280.716 167.968 278.403V273.81C166.593 272.685 165.03 271.747 163.28 270.997C161.593 270.247 159.843 269.872 158.03 269.872ZM217.655 254.122C221.343 254.122 224.155 254.716 226.093 255.903C228.093 257.028 229.905 258.216 231.53 259.466V273.528C230.093 272.466 228.436 271.622 226.561 270.997C224.749 270.372 222.499 270.06 219.811 270.06C218.374 270.06 216.874 270.435 215.311 271.185C213.749 271.935 212.436 273.028 211.374 274.466C210.311 275.841 209.78 277.591 209.78 279.716C209.78 282.841 210.78 285.216 212.78 286.841C214.78 288.466 217.124 289.278 219.811 289.278C222.499 289.278 224.749 288.966 226.561 288.341C228.436 287.653 230.093 286.81 231.53 285.81V299.872C229.905 301.122 228.093 302.247 226.093 303.247C224.155 304.247 221.343 304.747 217.655 304.747C214.093 304.747 210.78 304.091 207.718 302.778C204.655 301.403 201.968 299.56 199.655 297.247C197.405 294.872 195.624 292.185 194.311 289.185C193.061 286.185 192.436 283.028 192.436 279.716C192.436 276.403 193.061 273.216 194.311 270.153C195.624 267.091 197.405 264.372 199.655 261.997C201.968 259.56 204.655 257.653 207.718 256.278C210.78 254.841 214.093 254.122 217.655 254.122ZM260.593 254.122C265.093 254.122 269.093 255.122 272.593 257.122C276.093 259.122 278.811 261.935 280.749 265.56C282.749 269.122 283.749 273.372 283.749 278.31V283.841H251.218C251.905 286.153 253.28 287.872 255.343 288.997C257.405 290.122 259.78 290.685 262.468 290.685C266.093 290.685 269.218 290.185 271.843 289.185C274.53 288.122 276.53 287.216 277.843 286.466V300.247C276.218 301.247 273.968 302.247 271.093 303.247C268.28 304.247 265.093 304.747 261.53 304.747C258.155 304.747 254.874 304.185 251.686 303.06C248.561 301.935 245.749 300.31 243.249 298.185C240.749 296.06 238.78 293.497 237.343 290.497C235.905 287.435 235.186 283.997 235.186 280.185C235.186 275.435 236.28 271.091 238.468 267.153C240.718 263.216 243.749 260.06 247.561 257.685C251.436 255.31 255.78 254.122 260.593 254.122ZM260.124 267.435C258.061 267.435 256.28 267.997 254.78 269.122C253.28 270.185 252.186 271.841 251.499 274.091H268.468C268.468 271.841 267.593 270.185 265.843 269.122C264.155 267.997 262.249 267.435 260.124 267.435ZM330.811 287.872V303.341H292.093V287.872H302.686V255.997H292.093V240.528H330.811V255.997H320.218V287.872H330.811ZM364.749 241.466V255.528H377.311V268.185H364.749V281.591C364.749 283.903 365.218 285.747 366.155 287.122C367.155 288.435 368.53 289.091 370.28 289.091C373.03 289.091 375.561 288.403 377.874 287.028V299.591C376.874 300.966 375.28 302.185 373.093 303.247C370.968 304.247 368.343 304.747 365.218 304.747C362.218 304.747 359.468 304.06 356.968 302.685C354.468 301.31 352.436 299.341 350.874 296.778C349.374 294.216 348.624 291.122 348.624 287.497V268.185H340.561V258.341C343.624 257.528 346.624 255.778 349.561 253.091C352.561 250.341 354.749 246.466 356.124 241.466H364.749Z" fill="white"/>
<path opacity="0.3" d="M300.251 436.296V452.41H277.009V474.48H258.747V409.05H305.134V425.164H277.009V436.296H300.251ZM336.075 423.21C338.679 423.21 341.218 423.796 343.692 424.968C346.231 426.075 348.314 427.507 349.942 429.265V424.675H366.739V474.48H349.942V466.179C348.705 468.914 346.817 471.225 344.278 473.113C341.739 475.001 338.679 475.945 335.098 475.945C331.387 475.945 327.904 475.001 324.649 473.113C321.394 471.225 318.725 468.328 316.641 464.421C314.623 460.45 313.614 455.47 313.614 449.48C313.614 443.881 314.623 439.128 316.641 435.222C318.725 431.316 321.459 428.354 324.844 426.335C328.295 424.252 332.038 423.21 336.075 423.21ZM339.59 439.617C337.182 439.617 335.163 440.593 333.536 442.546C331.973 444.5 331.192 446.811 331.192 449.48C331.192 452.149 332.006 454.395 333.633 456.218C335.261 458.041 337.409 458.953 340.079 458.953C341.511 458.953 342.976 458.595 344.473 457.878C345.971 457.097 347.24 455.958 348.282 454.46C349.389 452.898 349.942 450.912 349.942 448.503V443.718C348.51 442.546 346.882 441.57 345.059 440.789C343.301 440.007 341.478 439.617 339.59 439.617ZM401.489 423.21C405.33 423.21 408.26 423.829 410.278 425.066C412.361 426.238 414.249 427.475 415.942 428.777V443.425C414.445 442.319 412.719 441.44 410.766 440.789C408.878 440.138 406.534 439.812 403.735 439.812C402.237 439.812 400.675 440.203 399.047 440.984C397.42 441.765 396.053 442.904 394.946 444.402C393.839 445.834 393.286 447.657 393.286 449.871C393.286 453.126 394.327 455.6 396.411 457.292C398.494 458.985 400.935 459.832 403.735 459.832C406.534 459.832 408.878 459.506 410.766 458.855C412.719 458.139 414.445 457.26 415.942 456.218V470.867C414.249 472.169 412.361 473.341 410.278 474.382C408.26 475.424 405.33 475.945 401.489 475.945C397.778 475.945 394.327 475.261 391.137 473.894C387.947 472.462 385.148 470.541 382.739 468.132C380.395 465.658 378.54 462.859 377.172 459.734C375.87 456.609 375.219 453.321 375.219 449.871C375.219 446.42 375.87 443.1 377.172 439.91C378.54 436.72 380.395 433.888 382.739 431.414C385.148 428.875 387.947 426.889 391.137 425.457C394.327 423.959 397.778 423.21 401.489 423.21ZM446.004 423.21C450.692 423.21 454.858 424.252 458.504 426.335C462.15 428.419 464.982 431.348 467 435.125C469.084 438.835 470.125 443.263 470.125 448.406V454.167H436.239C436.955 456.576 438.387 458.367 440.536 459.539C442.684 460.71 445.158 461.296 447.957 461.296C451.733 461.296 454.989 460.776 457.723 459.734C460.523 458.627 462.606 457.683 463.973 456.902V471.257C462.28 472.299 459.937 473.341 456.942 474.382C454.012 475.424 450.692 475.945 446.981 475.945C443.465 475.945 440.047 475.359 436.727 474.187C433.472 473.015 430.542 471.322 427.938 469.109C425.334 466.895 423.283 464.226 421.786 461.101C420.288 457.911 419.539 454.33 419.539 450.359C419.539 445.411 420.679 440.886 422.957 436.785C425.301 432.683 428.459 429.395 432.43 426.921C436.467 424.447 440.991 423.21 446.004 423.21ZM445.516 437.078C443.368 437.078 441.512 437.664 439.95 438.835C438.387 439.942 437.248 441.667 436.532 444.011H454.207C454.207 441.667 453.296 439.942 451.473 438.835C449.715 437.664 447.73 437.078 445.516 437.078ZM518.938 458.367V474.48H478.606V458.367H489.641V425.164H478.606V409.05H518.938V425.164H507.903V458.367H518.938ZM560.426 407.488C566.936 407.488 572.828 408.79 578.102 411.394C583.375 413.998 587.574 417.774 590.699 422.722C593.824 427.67 595.387 433.66 595.387 440.691C595.387 445.509 594.573 450.066 592.945 454.363C591.383 458.595 589.137 462.338 586.207 465.593C583.278 468.848 579.762 471.388 575.66 473.21C571.559 475.033 566.969 475.945 561.891 475.945C558.896 475.945 555.706 475.815 552.32 475.554C549 475.359 545.745 475.033 542.555 474.578C539.365 474.187 536.435 473.731 533.766 473.21V410.222C537.932 409.506 542.327 408.888 546.949 408.367C551.637 407.781 556.129 407.488 560.426 407.488ZM561.012 424.578C559.515 424.578 557.952 424.708 556.324 424.968C554.762 425.164 553.33 425.424 552.028 425.75V457.683C553.525 458.139 555.055 458.464 556.617 458.66C558.18 458.79 559.645 458.855 561.012 458.855C564.332 458.855 567.132 458.106 569.41 456.609C571.754 455.046 573.544 452.963 574.781 450.359C576.018 447.755 576.637 444.858 576.637 441.667C576.637 436.589 575.27 432.488 572.535 429.363C569.866 426.173 566.025 424.578 561.012 424.578Z" fill="#97CAB6"/>
<path opacity="0.6" d="M550.785 256.355V272.468H527.543V294.539H509.281V229.109H555.668V245.222H527.543V256.355H550.785ZM586.609 243.269C589.213 243.269 591.752 243.855 594.226 245.027C596.766 246.134 598.849 247.566 600.476 249.324V244.734H617.273V294.539H600.476V286.238C599.239 288.972 597.351 291.283 594.812 293.171C592.273 295.059 589.213 296.003 585.633 296.003C581.922 296.003 578.439 295.059 575.183 293.171C571.928 291.283 569.259 288.386 567.176 284.48C565.157 280.509 564.148 275.528 564.148 269.539C564.148 263.94 565.157 259.187 567.176 255.281C569.259 251.375 571.993 248.412 575.379 246.394C578.829 244.311 582.573 243.269 586.609 243.269ZM590.125 259.675C587.716 259.675 585.698 260.652 584.07 262.605C582.508 264.558 581.726 266.869 581.726 269.539C581.726 272.208 582.54 274.454 584.168 276.277C585.795 278.1 587.944 279.011 590.613 279.011C592.045 279.011 593.51 278.653 595.008 277.937C596.505 277.156 597.775 276.016 598.816 274.519C599.923 272.957 600.476 270.971 600.476 268.562V263.777C599.044 262.605 597.417 261.628 595.594 260.847C593.836 260.066 592.013 259.675 590.125 259.675ZM652.023 243.269C655.864 243.269 658.794 243.888 660.812 245.125C662.896 246.296 664.784 247.533 666.476 248.835V263.484C664.979 262.377 663.254 261.498 661.301 260.847C659.413 260.196 657.069 259.871 654.269 259.871C652.772 259.871 651.209 260.261 649.582 261.042C647.954 261.824 646.587 262.963 645.48 264.46C644.373 265.893 643.82 267.716 643.82 269.929C643.82 273.184 644.862 275.658 646.945 277.351C649.028 279.044 651.47 279.89 654.269 279.89C657.069 279.89 659.413 279.565 661.301 278.914C663.254 278.197 664.979 277.319 666.476 276.277V290.925C664.784 292.227 662.896 293.399 660.812 294.441C658.794 295.483 655.864 296.003 652.023 296.003C648.312 296.003 644.862 295.32 641.672 293.953C638.482 292.52 635.682 290.6 633.273 288.191C630.929 285.717 629.074 282.917 627.707 279.792C626.405 276.667 625.754 273.38 625.754 269.929C625.754 266.479 626.405 263.158 627.707 259.968C629.074 256.778 630.929 253.946 633.273 251.472C635.682 248.933 638.482 246.947 641.672 245.515C644.862 244.018 648.312 243.269 652.023 243.269ZM696.539 243.269C701.226 243.269 705.393 244.311 709.039 246.394C712.685 248.477 715.517 251.407 717.535 255.183C719.618 258.894 720.66 263.321 720.66 268.464V274.226H686.773C687.489 276.635 688.922 278.425 691.07 279.597C693.218 280.769 695.692 281.355 698.492 281.355C702.268 281.355 705.523 280.834 708.257 279.792C711.057 278.686 713.14 277.742 714.507 276.96V291.316C712.815 292.358 710.471 293.399 707.476 294.441C704.547 295.483 701.226 296.003 697.515 296.003C694 296.003 690.582 295.417 687.261 294.246C684.006 293.074 681.076 291.381 678.472 289.167C675.868 286.954 673.817 284.285 672.32 281.16C670.823 277.97 670.074 274.389 670.074 270.417C670.074 265.47 671.213 260.945 673.492 256.843C675.836 252.742 678.993 249.454 682.965 246.98C687.001 244.506 691.526 243.269 696.539 243.269ZM696.05 257.136C693.902 257.136 692.047 257.722 690.484 258.894C688.922 260.001 687.782 261.726 687.066 264.07H704.742C704.742 261.726 703.83 260.001 702.007 258.894C700.25 257.722 698.264 257.136 696.05 257.136ZM757.168 229.109C760.488 229.109 763.71 229.662 766.835 230.769C770.026 231.876 772.89 233.503 775.429 235.652C777.968 237.8 779.987 240.404 781.484 243.464C783.046 246.524 783.828 249.975 783.828 253.816C783.828 258.829 782.656 263.158 780.312 266.804C777.968 270.385 774.908 273.119 771.132 275.007C767.356 276.895 763.352 277.839 759.121 277.839C756.647 277.839 754.433 277.611 752.48 277.156C750.527 276.635 748.834 275.984 747.402 275.203V294.539H729.14V229.109H757.168ZM747.402 246.199V261.335C748.509 261.726 749.681 262.052 750.918 262.312C752.22 262.572 753.587 262.703 755.019 262.703C757.884 262.703 760.26 261.824 762.148 260.066C764.101 258.243 765.078 256.16 765.078 253.816C765.078 251.147 764.101 249.226 762.148 248.054C760.26 246.817 757.884 246.199 755.019 246.199H747.402ZM810.863 243.269C813.467 243.269 816.006 243.855 818.48 245.027C821.019 246.134 823.102 247.566 824.73 249.324V244.734H841.527V294.539H824.73V286.238C823.493 288.972 821.605 291.283 819.066 293.171C816.527 295.059 813.467 296.003 809.886 296.003C806.175 296.003 802.692 295.059 799.437 293.171C796.182 291.283 793.512 288.386 791.429 284.48C789.411 280.509 788.402 275.528 788.402 269.539C788.402 263.94 789.411 259.187 791.429 255.281C793.512 251.375 796.247 248.412 799.632 246.394C803.083 244.311 806.826 243.269 810.863 243.269ZM814.378 259.675C811.97 259.675 809.951 260.652 808.324 262.605C806.761 264.558 805.98 266.869 805.98 269.539C805.98 272.208 806.794 274.454 808.421 276.277C810.049 278.1 812.197 279.011 814.867 279.011C816.299 279.011 817.764 278.653 819.261 277.937C820.759 277.156 822.028 276.016 823.07 274.519C824.177 272.957 824.73 270.971 824.73 268.562V263.777C823.298 262.605 821.67 261.628 819.847 260.847C818.089 260.066 816.266 259.675 814.378 259.675ZM866.413 244.734L877.449 271.199L888.093 244.734H906.843L871.101 317.976H852.351L868.074 290.242L847.077 244.734H866.413Z" fill="#97CAB6"/>
<path d="M207.133 80.5415V96.6548H183.891V118.725H165.629V53.2954H212.016V69.4087H183.891V80.5415H207.133ZM244.73 67.4556C247.335 67.4556 249.874 68.0415 252.348 69.2134C254.887 70.3201 256.97 71.7524 258.598 73.5103V68.9204H275.395V118.725H258.598V110.424C257.361 113.159 255.473 115.47 252.934 117.358C250.395 119.246 247.335 120.19 243.754 120.19C240.043 120.19 236.56 119.246 233.305 117.358C230.049 115.47 227.38 112.573 225.297 108.667C223.279 104.695 222.27 99.7147 222.27 93.7251C222.27 88.1261 223.279 83.3735 225.297 79.4673C227.38 75.561 230.115 72.5988 233.5 70.5806C236.951 68.4972 240.694 67.4556 244.73 67.4556ZM248.246 83.8618C245.837 83.8618 243.819 84.8384 242.191 86.7915C240.629 88.7446 239.848 91.0558 239.848 93.7251C239.848 96.3944 240.661 98.6405 242.289 100.463C243.917 102.286 246.065 103.198 248.734 103.198C250.167 103.198 251.632 102.84 253.129 102.124C254.626 101.342 255.896 100.203 256.938 98.7056C258.044 97.1431 258.598 95.1574 258.598 92.7485V87.9634C257.165 86.7915 255.538 85.8149 253.715 85.0337C251.957 84.2524 250.134 83.8618 248.246 83.8618ZM311.918 67.4556C315.759 67.4556 318.689 68.0741 320.707 69.311C322.79 70.4829 324.678 71.7199 326.371 73.022V87.6704C324.874 86.5636 323.148 85.6847 321.195 85.0337C319.307 84.3826 316.964 84.0571 314.164 84.0571C312.667 84.0571 311.104 84.4478 309.477 85.229C307.849 86.0103 306.482 87.1496 305.375 88.647C304.268 90.0793 303.715 91.9022 303.715 94.1157C303.715 97.3709 304.757 99.8449 306.84 101.538C308.923 103.23 311.365 104.077 314.164 104.077C316.964 104.077 319.307 103.751 321.195 103.1C323.148 102.384 324.874 101.505 326.371 100.463V115.112C324.678 116.414 322.79 117.586 320.707 118.627C318.689 119.669 315.759 120.19 311.918 120.19C308.207 120.19 304.757 119.506 301.566 118.139C298.376 116.707 295.577 114.786 293.168 112.377C290.824 109.903 288.969 107.104 287.602 103.979C286.299 100.854 285.648 97.5662 285.648 94.1157C285.648 90.6652 286.299 87.3449 287.602 84.1548C288.969 80.9647 290.824 78.1326 293.168 75.6587C295.577 73.1196 298.376 71.134 301.566 69.7017C304.757 68.2043 308.207 67.4556 311.918 67.4556ZM358.207 67.4556C362.895 67.4556 367.061 68.4972 370.707 70.5806C374.353 72.6639 377.185 75.5936 379.203 79.3696C381.286 83.0806 382.328 87.5076 382.328 92.6509V98.4126H348.441C349.158 100.821 350.59 102.612 352.738 103.784C354.887 104.956 357.361 105.542 360.16 105.542C363.936 105.542 367.191 105.021 369.926 103.979C372.725 102.872 374.809 101.928 376.176 101.147V115.502C374.483 116.544 372.139 117.586 369.145 118.627C366.215 119.669 362.895 120.19 359.184 120.19C355.668 120.19 352.25 119.604 348.93 118.432C345.674 117.26 342.745 115.568 340.141 113.354C337.536 111.14 335.486 108.471 333.988 105.346C332.491 102.156 331.742 98.5754 331.742 94.604C331.742 89.6561 332.882 85.1313 335.16 81.0298C337.504 76.9282 340.661 73.6405 344.633 71.1665C348.669 68.6925 353.194 67.4556 358.207 67.4556ZM357.719 81.3228C355.57 81.3228 353.715 81.9087 352.152 83.0806C350.59 84.1873 349.451 85.9126 348.734 88.2563H366.41C366.41 85.9126 365.499 84.1873 363.676 83.0806C361.918 81.9087 359.932 81.3228 357.719 81.3228ZM478.91 53.2954L457.621 118.725H443.852L432.426 84.0571L421 118.725H407.23L385.746 53.2954H407.035L415.922 87.2798L426.078 53.2954H438.578L448.93 87.2798L457.621 53.2954H478.91ZM509.77 67.4556C514.457 67.4556 518.624 68.4972 522.27 70.5806C525.915 72.6639 528.747 75.5936 530.766 79.3696C532.849 83.0806 533.891 87.5076 533.891 92.6509V98.4126H500.004C500.72 100.821 502.152 102.612 504.301 103.784C506.449 104.956 508.923 105.542 511.723 105.542C515.499 105.542 518.754 105.021 521.488 103.979C524.288 102.872 526.371 101.928 527.738 101.147V115.502C526.046 116.544 523.702 117.586 520.707 118.627C517.777 119.669 514.457 120.19 510.746 120.19C507.23 120.19 503.812 119.604 500.492 118.432C497.237 117.26 494.307 115.568 491.703 113.354C489.099 111.14 487.048 108.471 485.551 105.346C484.053 102.156 483.305 98.5754 483.305 94.604C483.305 89.6561 484.444 85.1313 486.723 81.0298C489.066 76.9282 492.224 73.6405 496.195 71.1665C500.232 68.6925 504.757 67.4556 509.77 67.4556ZM509.281 81.3228C507.133 81.3228 505.277 81.9087 503.715 83.0806C502.152 84.1873 501.013 85.9126 500.297 88.2563H517.973C517.973 85.9126 517.061 84.1873 515.238 83.0806C513.48 81.9087 511.495 81.3228 509.281 81.3228ZM556.156 40.9907C558.044 40.9907 559.77 41.4465 561.332 42.3579C562.96 43.2694 564.262 44.5063 565.238 46.0688C566.215 47.5662 566.703 49.259 566.703 51.147C566.703 52.9699 566.215 54.6626 565.238 56.2251C564.262 57.7876 562.96 59.0246 561.332 59.936C559.77 60.8475 558.044 61.3032 556.156 61.3032C553.357 61.3032 550.915 60.3267 548.832 58.3735C546.749 56.3553 545.707 53.9465 545.707 51.147C545.707 48.2824 546.749 45.8735 548.832 43.9204C550.915 41.9673 553.357 40.9907 556.156 40.9907ZM565.629 68.9204V118.725H548.832V82.5923H540.727V68.9204H565.629ZM598.441 67.4556C601.046 67.4556 603.585 68.0415 606.059 69.2134C608.598 70.3201 610.681 71.7524 612.309 73.5103V68.9204H629.105V117.26C629.105 122.534 627.803 127.124 625.199 131.03C622.595 135.001 619.145 138.094 614.848 140.307C610.551 142.521 605.831 143.627 600.688 143.627C596.521 143.627 592.908 143.042 589.848 141.87C586.788 140.763 583.728 139.2 580.668 137.182V122.338C582.751 123.51 584.639 124.552 586.332 125.463C588.09 126.375 589.978 127.091 591.996 127.612C594.014 128.198 596.391 128.491 599.125 128.491C603.161 128.491 606.352 127.351 608.695 125.073C611.104 122.794 612.309 120.222 612.309 117.358V110.424C611.072 113.159 609.184 115.47 606.645 117.358C604.105 119.246 601.046 120.19 597.465 120.19C593.754 120.19 590.271 119.246 587.016 117.358C583.76 115.47 581.091 112.573 579.008 108.667C576.99 104.695 575.98 99.7147 575.98 93.7251C575.98 88.1261 576.99 83.3735 579.008 79.4673C581.091 75.561 583.826 72.5988 587.211 70.5806C590.661 68.4972 594.405 67.4556 598.441 67.4556ZM601.957 83.8618C599.548 83.8618 597.53 84.8384 595.902 86.7915C594.34 88.7446 593.559 91.0558 593.559 93.7251C593.559 96.3944 594.372 98.6405 596 100.463C597.628 102.286 599.776 103.198 602.445 103.198C603.878 103.198 605.342 102.84 606.84 102.124C608.337 101.342 609.607 100.203 610.648 98.7056C611.755 97.1431 612.309 95.1574 612.309 92.7485V87.9634C610.876 86.7915 609.249 85.8149 607.426 85.0337C605.668 84.2524 603.845 83.8618 601.957 83.8618ZM673.637 67.4556C678.715 67.4556 682.849 69.1808 686.039 72.6313C689.294 76.0819 690.922 81.1925 690.922 87.9634V118.725H674.125L674.027 90.6001C674.027 88.1261 673.344 86.4009 671.977 85.4243C670.609 84.3826 669.079 83.8618 667.387 83.8618C665.564 83.8618 664.034 84.3501 662.797 85.3267C661.56 86.2381 660.486 87.3449 659.574 88.647V118.725H642.777V48.4126H659.574V75.3657C661.137 73.2173 663.025 71.3618 665.238 69.7993C667.517 68.2368 670.316 67.4556 673.637 67.4556Z" fill="#97CAB6"/>
</svg>
