<svg width="100" height="100" viewBox="0 0 100 100" fill="none" xmlns="http://www.w3.org/2000/svg">
<path d="M89.6643 37.7958L81.8211 18.294C81.6267 17.8114 81.158 17.492 80.6338 17.492H58.7881C58.7118 17.4781 58.6388 17.4573 58.5625 17.4573L41.4321 17.4607H20.43C19.93 17.4607 19.4752 17.7524 19.2668 18.2072L10.3368 37.789C10.1285 38.0181 10 38.3167 10 38.65C10 39.0736 10.2048 39.4486 10.5277 39.6813L48.8202 81.8482C48.8445 81.9002 48.8688 81.9523 48.9001 81.9975C49.1397 82.3377 49.532 82.5425 49.9486 82.5425H50.0181H50.0215C50.1257 82.5425 50.2264 82.5252 50.3271 82.5009C50.3549 82.4939 50.3826 82.4835 50.4139 82.4731C50.4903 82.4488 50.5597 82.4176 50.6291 82.3794C50.6465 82.3689 50.6639 82.3655 50.6812 82.3585C50.6916 82.3516 50.6986 82.3412 50.7055 82.3377C50.7993 82.2752 50.8895 82.2092 50.9659 82.1259L89.6682 39.5111C90.0084 39.1361 90.0952 38.598 89.8904 38.1327C89.8279 38.0077 89.7515 37.8966 89.6647 37.7959L89.6643 37.7958ZM42.3414 20.0157H57.6808L63.7186 37.3336H36.3L42.3414 20.0157ZM21.2521 20.0157H39.5984L33.5606 37.3336H13.354L21.2521 20.0157ZM14.2005 39.9272H33.6259L46.545 75.5425L14.2005 39.9272ZM49.9794 77.4215L36.3759 39.9272H63.5785L49.9794 77.4215ZM53.3681 75.6716L66.3361 39.9274H85.8316L53.3681 75.6716ZM66.4472 37.372L60.4094 20.0505H79.7689L86.7372 37.372H66.4472Z" fill="white"/>
</svg>
