<?xml version="1.0" encoding="UTF-8"?>
<svg fill="#FFFFFF" width="100pt" height="100pt" version="1.1" viewBox="0 0 100 100" xmlns="http://www.w3.org/2000/svg">
 <g>
  <path d="m79.949 45.566c-0.015625 0.003906-1.875 0.42969-3.8164-1.0195-1.9922-1.4922-4.4414-5.2383-4.7656-14.488 0.019531-0.375 0.41016-9.3086-5.5664-15.66-3.7227-3.957-9.0352-5.9922-15.812-6.0469-6.7461 0.058594-12.059 2.0898-15.781 6.0469-5.9766 6.3516-5.5859 15.285-5.5664 15.516-0.32422 9.3164-2.7344 13.07-4.6992 14.582-1.9492 1.4961-3.8281 1.0781-3.8828 1.0703-0.55859-0.14453-1.1562 0.011719-1.5742 0.41406-0.41797 0.40234-0.59766 0.99219-0.46875 1.5586 1.2695 5.7734 5.9336 9.4727 9.4609 11.516-4.9883 2.2891-8.4648 7.3203-8.4648 13.156v10.41c0 0.56641 0.28906 1.0938 0.76562 1.4023 7.9141 5.0859 19.484 7.6289 30.852 7.6289 11.41 0 22.609-2.5586 29.691-7.6758 0.43359-0.3125 0.69141-0.81641 0.69141-1.3516v-10.41c0-5.8359-3.4805-10.867-8.4648-13.156 3.5273-2.043 8.1914-5.7461 9.4609-11.516 0.125-0.56641-0.054687-1.1562-0.46875-1.5586-0.42969-0.40234-1.0312-0.5625-1.5898-0.41797zm-2.2852 26.645v9.5391c-13.059 8.7383-40.734 8.7109-55.332-0.054688v-9.4805c0-6.1484 5-11.148 11.152-11.148h5.0352c4.6641 3.043 8.8398 4.0625 12.309 4.0625 3.6133 0 6.4609-1.0859 8.3125-2.082 0.84766-0.45703 2.0312-1.1758 2.8516-1.9766h4.5234c6.1484-0.007812 11.148 4.9922 11.148 11.141zm-10.121-14.43c-0.33984-0.023438-0.67969-0.050781-1.0273-0.050781h-5.2227c-0.007813 0-0.015625-0.003907-0.023438-0.003907h-0.019531c-0.21094 0.003907-0.40234 0.054688-0.58984 0.12891-0.023437 0.011719-0.046875 0.019531-0.074218 0.03125-0.18359 0.082031-0.34766 0.19141-0.48828 0.32812-0.011718 0.011718-0.019531 0.023437-0.027344 0.035156-0.066406 0.070312-0.13672 0.14062-0.19141 0.22656-0.63281 0.60547-8.3125 7.4219-19.957-0.45703-0.050781-0.035156-0.10938-0.039062-0.16016-0.066406-0.085938-0.046875-0.17578-0.082031-0.26953-0.11328-0.125-0.039063-0.24219-0.066406-0.37109-0.074219-0.046875-0.003906-0.085938-0.027344-0.13281-0.027344l-5.5039-0.007812c-0.34766 0-0.6875 0.027343-1.0273 0.050781-1.3945-0.54297-8.0547-3.3906-10.52-8.918 1.1484-0.16797 2.5391-0.61328 3.9258-1.6445 3.75-2.8008 5.8047-8.582 6.1055-17.332-0.003906-0.078125-0.35156-7.8789 4.6641-13.203 3.0781-3.2695 7.582-4.9492 13.355-5 5.793 0.050781 10.289 1.7227 13.367 4.9805 5.0039 5.2969 4.6875 13.148 4.6836 13.371 0.30078 8.6016 2.3516 14.383 6.1055 17.184 1.3867 1.0352 2.7773 1.4805 3.9258 1.6484-2.4727 5.5234-9.1328 8.3711-10.527 8.9141z"/>
  <path d="m48.402 27.109c-0.070313 0.011719-7.375 0.5-9.2266-3.0625-0.31641-0.60938-0.96484-0.97266-1.6602-0.89062-0.68359 0.074219-1.25 0.55859-1.4297 1.2227-0.19141 0.71484-4.6602 17.66 2.0664 27.344 2.6211 3.7734 6.5508 5.9297 11.613 6.3984 0.050781 0.007812 0.37891 0.046875 0.91797 0.046875 1.5898 0 4.9805-0.35156 8.2852-2.9727 4.3125-3.418 6.9141-9.3594 7.7383-17.656 0.027344-0.26172-0.011719-0.52734-0.10547-0.77344-0.039062-0.10938-4.4102-10.766-18.199-9.6562zm8.5625 25.426c-3.3008 2.6562-6.6328 2.3047-6.8242 2.2773-4.1562-0.38672-7.1797-2.0156-9.2422-4.9844-4.2969-6.1797-3.1602-16.469-2.2383-21.551 3.8438 2.6172 9.6992 2.1836 10.012 2.1562 10.078-0.82031 13.898 5.6289 14.676 7.2148-0.76562 7.0859-2.9141 12.094-6.3828 14.887z"/>
 </g>
</svg>
