<?xml version="1.0" encoding="UTF-8"?>
<svg fill="#FFFFFF" width="100pt" height="100pt" version="1.1" viewBox="0 0 100 100" xmlns="http://www.w3.org/2000/svg">
 <g>
  <path d="m55.934 30.246c-0.25-0.078125-0.51172-0.10547-0.77344-0.070313-0.70703 0.097657-1.293 0.60156-1.4883 1.2891l-10.766 35.902c-0.37109 0.91797 0.070312 1.9648 0.98828 2.3398 0.91797 0.37109 1.9648-0.070312 2.3398-0.98828 0.039063-0.10156 0.074219-0.20703 0.09375-0.3125l10.77-35.898c0.30078-0.94922-0.21875-1.957-1.1641-2.2617z"/>
  <path d="m38.688 33.359c-0.35938-0.33984-0.84375-0.51953-1.3398-0.49219-0.47266 0.027343-0.91797 0.23828-1.2344 0.58984l-14.355 15.258c-0.63672 0.6875-0.63672 1.75 0 2.4414l14.359 15.258c0.67187 0.72656 1.8086 0.77344 2.5391 0.097657 0.72656-0.67188 0.77344-1.8086 0.097656-2.5391l-13.211-14.023 13.211-14.051c0.68359-0.71875 0.65234-1.8555-0.066406-2.5391z"/>
  <path d="m63.883 33.457c-0.37109-0.41016-0.90625-0.62891-1.457-0.58984-0.98828 0.066406-1.7383 0.92187-1.668 1.9141 0.027344 0.41797 0.20313 0.8125 0.49219 1.1172l13.211 14.051-13.215 14.023c-0.67188 0.72656-0.62891 1.8633 0.097656 2.5391 0.72656 0.67188 1.8633 0.62891 2.5391-0.097657l14.359-15.258c0.63672-0.6875 0.63672-1.75 0-2.4414z"/>
  <path d="m50 4.2656c-25.219 0-45.734 20.516-45.734 45.734s20.516 45.734 45.734 45.734 45.734-20.516 45.734-45.734-20.516-45.734-45.734-45.734zm0 87.879c-23.238 0-42.145-18.906-42.145-42.145s18.906-42.145 42.145-42.145 42.145 18.906 42.145 42.145-18.906 42.145-42.145 42.145z"/>
 </g>
</svg>
