<?xml version="1.0" encoding="UTF-8"?>
<svg fill="#FFFFFF" width="100pt" height="100pt" version="1.1" viewBox="0 0 100 100" xmlns="http://www.w3.org/2000/svg">
 <g>
  <path d="m63.004 78.863c-0.10156 0.31641 0.007813 0.66406 0.28125 0.85938l7.0156 5.0977-2.6797 8.2461c-0.10156 0.31641 0.007812 0.66406 0.28125 0.85938 0.13672 0.097657 0.29297 0.14844 0.45312 0.14844 0.16016 0 0.31641-0.050781 0.45312-0.14844l7.0156-5.0938 7.0156 5.0938c0.26953 0.19531 0.63281 0.19531 0.90625 0 0.26953-0.19531 0.38281-0.54297 0.28125-0.85938l-2.6797-8.2461 7.0156-5.0977c0.26953-0.19531 0.38281-0.54297 0.28125-0.85938-0.10156-0.31641-0.39844-0.53125-0.73047-0.53125h-8.6719l-2.6797-8.2461c-0.10156-0.31641-0.39844-0.53125-0.73047-0.53125s-0.62891 0.21484-0.73047 0.53125l-2.6797 8.2461h-8.6836c-0.33594 0-0.62891 0.21484-0.73438 0.53125zm9.9609 1.0078c0.33203 0 0.62891-0.21484 0.73047-0.53125l2.1211-6.5273 2.1211 6.5273c0.10156 0.31641 0.39844 0.53125 0.73047 0.53125h6.8633l-5.5508 4.0352c-0.26953 0.19531-0.38281 0.54297-0.28125 0.85938l2.1211 6.5273-5.5508-4.0312c-0.13672-0.097657-0.29297-0.14844-0.45312-0.14844s-0.31641 0.050781-0.45312 0.14844l-5.5508 4.0312 2.1211-6.5273c0.10156-0.31641-0.007813-0.66406-0.28125-0.85938l-5.5508-4.0352z"/>
  <path d="m6.0352 43.301c0.19531 0.58594 4.7617 13.918 16.668 19.602-1.1367 0.96484-2.207 1.9922-3.1875 3.0781-5.8281 6.3984-9.0352 14.938-9.0352 24.043v2.3672c0 0.42578 0.34375 0.76953 0.76953 0.76953h50.371c3.3359 4.1641 8.457 6.8398 14.199 6.8398 10.027 0 18.188-8.1602 18.188-18.188s-8.1602-18.188-18.188-18.188c-2.0391 0-4 0.34375-5.832 0.96484-1.2031-1.1875-2.5195-2.3008-3.9219-3.3203 2.2148-2.3945 8.6094-11.383 4.6016-32.352-4.7031-24.617-22.305-28.559-22.477-28.594-0.18359-0.039063-18.359-3.6953-23.512 15.625-2.668 10.012-3.7031 15.812-4.0977 18.918-0.53125 4.1719-3.8945 7.418-8 7.7148-1.7031 0.125-3.6211 0.027344-5.7031-0.28125-0.26953-0.042969-0.53125 0.058594-0.70312 0.26172s-0.22656 0.48438-0.14062 0.73828zm86.434 38.512c0 9.1797-7.4688 16.648-16.648 16.648-9.1797 0-16.648-7.4688-16.648-16.648s7.4688-16.648 16.648-16.648c9.1797 0 16.648 7.4688 16.648 16.648zm-34.836 0c0 3.6094 1.0625 6.9766 2.8828 9.8086h-48.496v-1.5977c0-8.7227 3.0664-16.895 8.6367-23.012 1.1172-1.2305 2.3516-2.3867 3.6719-3.457 0.003906 0 0.011719 0.003906 0.015625 0.003906 0.30469 0 0.58984-0.17969 0.71094-0.47656 0.015624-0.035156 0.011718-0.070312 0.019531-0.10547 0.4375-0.33594 0.87891-0.67578 1.332-0.98828 0.91797-0.63672 1.7617-1.3516 2.5273-2.125l15.941 15.98c0.14453 0.14453 0.33984 0.22656 0.54297 0.22656s0.39844-0.082031 0.54297-0.22656l15.941-15.98c0.76562 0.77344 1.6094 1.4883 2.5312 2.125 1.4219 0.97656 2.75 2.0586 3.9727 3.2148-6.3398 2.8438-10.773 9.2188-10.773 16.609zm-8.957-31.078c-1.9414 0.58594-3.9844 0.61328-5.9062 0.070313-8.3242-2.3398-10.387-6.3594-12.105-15.074-0.92969-4.6992-0.78125-6.9883 0.54688-8.4414 0.73047-0.79687 1.7891-1.2227 2.9102-1.2227 0.57812 0 1.168 0.11328 1.7383 0.34375 0.95312 0.39062 1.9609 0.66406 2.9961 0.8125 2.8164 0.41016 5.5742-1.0781 6.8672-3.6992 1.3555-2.7422 3.375-4.832 4.832-6.1055 1.8398-1.6094 4.5039-1.8984 6.6289-0.72266 4.0742 2.2578 3.8047 6.582 3.2656 15.191-0.089844 1.4414-0.1875 2.9961-0.26953 4.668-0.47656 9.4531-7.4141 12.941-11.504 14.18zm-6.3242 1.5547c1.0547 0.29688 2.1445 0.44531 3.2344 0.44531 1.1875 0 2.375-0.17578 3.5352-0.52734 2.1641-0.65625 5.0508-1.8984 7.5195-4.168 0.23438 3.9414 1.7188 7.6758 4.2422 10.68l-15.457 15.496-15.461-15.496c2.5508-3.0352 4.0352-6.8125 4.25-10.789 1.8867 1.9141 4.457 3.3242 8.1367 4.3594zm-29.66-8.1758c4.832-0.34766 8.793-4.1562 9.4141-9.0547 0.39062-3.0547 1.4102-8.7852 4.0586-18.715 4.7695-17.887 21.016-14.66 21.707-14.516 0.16797 0.035156 16.781 3.8125 21.285 27.379 3.9453 20.637-2.6016 29.266-4.3516 31.145-0.84766-0.63281-1.6289-1.3359-2.3164-2.1055-2.7773-3.0469-4.3281-7.0117-4.3633-11.133 0.003906-0.0625 0.019531-0.25391 0.039062-0.44531 0.007813-0.10156 0.019532-0.19922 0.027344-0.28906 1.8945-2.3359 3.3086-5.4805 3.5195-9.7461 0.082031-1.6641 0.17969-3.2109 0.26953-4.6484 0.55859-8.9648 0.86719-13.902-4.0586-16.633-2.6875-1.4922-6.0625-1.125-8.3867 0.90625-2.2734 1.9844-4.0195 4.1992-5.1953 6.582-0.98438 1.9922-3.1523 3.1602-5.2656 2.8555-0.91016-0.13281-1.7969-0.37109-2.6328-0.71484-2.2695-0.92969-4.8281-0.41797-6.3633 1.2656-1.7109 1.8711-1.957 4.5195-0.92188 9.7773 0.84375 4.2812 1.8477 7.5859 3.625 10.156-0.007812 0.11328-0.015625 0.26172-0.023438 0.40234-0.015624 0.24219-0.027343 0.46094-0.027343 0.49609-0.035157 4.1523-1.5859 8.1172-4.3672 11.164-0.82812 0.91406-1.7773 1.7461-2.8164 2.4727-0.50391 0.34375-1 0.71094-1.4844 1.0859-9.7773-4.2969-14.688-14.371-16.117-17.812 1.7031 0.1875 3.2969 0.23047 4.7461 0.125z"/>
 </g>
</svg>
