<svg width="100" height="100" viewBox="0 0 100 100" fill="none" xmlns="http://www.w3.org/2000/svg">
<path d="M24.6492 12.5H75.3508C81.8928 12.5 87.5 17.8731 87.5 24.6492V75.3508C87.5 81.8928 81.8926 87.5 75.3508 87.5H24.6492C17.8728 87.5 12.5 82.1269 12.5 75.3508V24.6492C12.5 17.8728 17.8731 12.5 24.6492 12.5V12.5ZM16.4727 57.359L31.4263 42.1715C32.3608 41.4713 33.5298 41.4713 34.23 42.1715L50.8177 58.994L62.2672 47.7793C62.9674 47.0791 64.3707 47.0791 65.0709 47.7793L83.5277 66.4707V24.6492C83.5277 20.2107 79.7894 16.4727 75.3512 16.4727H24.6497C20.2112 16.4727 16.4732 20.211 16.4732 24.6492L16.4727 57.359ZM53.621 61.7975L75.116 83.5273H75.3504C79.7889 83.5273 83.5269 79.789 83.5269 75.3508V72.0783L63.6669 51.9835L53.621 61.7975ZM69.509 83.5273L32.8265 46.379L16.4698 62.7358V75.3538C16.4698 79.7923 20.208 83.5303 24.6462 83.5303H69.5053L69.509 83.5273Z" fill="white"/>
<path d="M51.0515 25.1179C55.49 25.1179 59.228 28.8562 59.228 33.2944C59.228 37.7329 55.4897 41.4709 51.0515 41.4709C46.613 41.4709 42.875 37.7326 42.875 33.2944C42.875 28.8559 46.6133 25.1179 51.0515 25.1179V25.1179ZM51.0515 29.0906C48.7136 29.0906 46.8444 30.9597 46.8444 33.2976C46.8444 35.6355 48.7136 37.5047 51.0515 37.5047C53.3894 37.5047 55.2585 35.6355 55.2585 33.2976C55.2585 30.9597 53.3894 29.0906 51.0515 29.0906V29.0906Z" fill="white"/>
</svg>
