<svg width="100" height="100" viewBox="0 0 100 100" fill="none" xmlns="http://www.w3.org/2000/svg">
<path d="M20.6665 30.4443H59.7776V33.9999H20.6665V30.4443Z" fill="white"/>
<path d="M20.6665 40.8889H59.7776V44.4445H20.6665V40.8889Z" fill="white"/>
<path d="M59.7501 51.3333H20.6665V54.8888H56.1945L59.7501 51.3333Z" fill="white"/>
<path d="M48.4621 62.632L49.3162 61.7778H20.6674V65.3334H46.6602C47.0734 64.323 47.688 63.4028 48.4623 62.632L48.4621 62.632Z" fill="white"/>
<path d="M44.3367 72.2222H20.6665V75.7777H43.9821C43.7112 74.9687 43.7112 74.0972 43.9821 73.2881L44.3367 72.2222Z" fill="white"/>
<path d="M82.5137 33.5696L81.4233 34.6633L87.5171 40.7641L88.7359 39.5453H88.7393C89.5623 38.7189 90.0171 37.5939 89.9998 36.4273C89.9825 35.2606 89.4928 34.1495 88.6422 33.3509C86.8713 31.7676 84.1665 31.8648 82.5137 33.5696L82.5137 33.5696Z" fill="white"/>
<path d="M65.9999 84.2221C65.9999 84.9582 65.4027 85.5555 64.6666 85.5555H15.7777C15.0416 85.5555 14.4443 84.9582 14.4443 84.2221V24.2221H23.3332C23.5693 24.2221 23.795 24.1284 23.9617 23.9617C24.1284 23.795 24.2221 23.5694 24.2221 23.3332V14.4444H64.6666C65.4027 14.4444 65.9999 15.0416 65.9999 15.7777V45.0728L70.4443 40.6249V15.7778C70.4443 12.5868 67.8575 10 64.6666 10H23.0728C22.3644 10 21.6874 10.2813 21.1874 10.7813L10.7811 21.1875C10.2811 21.6875 9.99988 22.3645 9.99988 23.0729V84.2222C9.99988 87.4132 12.5867 90 15.7777 90H64.6665C67.8575 90 70.4443 87.4132 70.4443 84.2222V62.8853L65.9999 67.3332L65.9999 84.2221Z" fill="white"/>
<path d="M50.9759 65.142C50.4481 65.6698 50.0487 66.3156 49.8127 67.0205L47.3509 74.4129L47.3544 74.4163C47.3092 74.5448 47.3439 74.6872 47.4377 74.7809C47.5349 74.8782 47.6773 74.9129 47.8057 74.8712L55.1912 72.406C55.8995 72.1699 56.5418 71.7705 57.0696 71.2428L85.691 42.5939L79.5972 36.4932L50.9759 65.142Z" fill="white"/>
</svg>
