<svg width="100" height="100" viewBox="0 0 100 100" fill="none" xmlns="http://www.w3.org/2000/svg">
<path d="M74.495 10.0004H36.7141C36.3496 10.0004 36.1046 10.1229 35.8595 10.3649L18.6755 27.5488C18.4304 27.7939 18.311 28.0358 18.311 28.4035V82.2719C18.311 85.4392 20.8719 88 24.0391 88H74.3723C77.5396 88 80.1004 85.4392 80.1004 82.2719V15.7281C80.2229 12.5577 77.6653 10 74.4948 10L74.495 10.0004ZM35.4955 14.0223V23.7722C35.4955 25.6008 34.0344 27.1845 32.0831 27.1845H22.3333L35.4955 14.0223ZM77.7849 82.2722C77.7849 84.1009 76.3238 85.6846 74.3726 85.6846H24.0394C22.2107 85.6846 20.627 84.2235 20.627 82.2722V29.5009H32.083C35.2502 29.5009 37.8111 26.9401 37.8111 23.7729V12.3169H74.3725C76.2012 12.3169 77.7848 13.778 77.7848 15.7293L77.7849 82.2722Z" fill="white" stroke="white"/>
<path d="M44.3115 56.3752C43.9377 56.2495 43.4349 56.2495 43.0611 56.6266L28.4363 69.0017C28.0624 69.3755 27.9368 69.8782 28.0624 70.252C28.1881 70.7515 28.562 71.0029 29.0614 71.1286L33.0608 71.5024L30.5601 77.4998C30.3087 78.125 30.5601 78.8759 31.1853 79.1241L37.0602 81.6248C37.6854 81.8762 38.4363 81.6248 38.6845 80.9996L41.3109 74.8733L44.3112 77.4998C44.6851 77.8736 45.1878 77.8736 45.6873 77.6255C46.1869 77.3741 46.4382 77.0003 46.3125 76.5007L45.0589 57.3738C45.0589 57 44.8108 56.5005 44.3113 56.3748L44.3115 56.3752ZM41.5594 72.0016C41.308 71.7502 40.8085 71.6278 40.4346 71.7503C40.0608 71.8759 39.6837 72.1241 39.5581 72.5011L36.8092 79.0013L33.1837 77.5027L35.9326 71.0026C36.0583 70.6288 36.0583 70.2517 35.8069 69.8779C35.5555 69.504 35.3074 69.3784 34.9303 69.2527L32.1814 69.0013L42.6813 60.0005L43.5578 73.7517L41.5594 72.0016Z" fill="white"/>
<path d="M71.1852 62.3753H64.6851C64.0599 62.3753 63.4347 62.8748 63.4347 63.6256V64.876C59.6835 63.4999 56.6832 60.6253 55.436 56.8774H56.6864C57.3116 56.8774 57.9368 56.3778 57.9368 55.627V49.1268C57.9368 48.5017 57.4373 47.8765 56.6864 47.8765H53.9375C52.439 42.7525 48.4364 38.7503 43.3123 37.2512V34.5023C43.3123 33.8771 42.8128 33.252 42.0619 33.252H35.5618C34.9366 33.252 34.3114 33.7515 34.3114 34.5023V41.0025C34.3114 41.6277 34.8109 42.2528 35.5618 42.2528H42.0619C42.6871 42.2528 43.3123 41.7533 43.3123 41.0025V39.7521C47.0635 41.1282 50.0638 44.0027 51.3109 47.7507H50.0606C49.4354 47.7507 48.8102 48.2503 48.8102 49.0011V55.5012C48.8102 56.1264 49.3097 56.7516 50.0606 56.7516H52.8095C54.308 61.8756 58.3106 65.8778 63.4347 67.3769V70.1258C63.4347 70.751 63.9342 71.3761 64.6851 71.3761H71.1852C71.8104 71.3761 72.4356 70.8766 72.4356 70.1258V63.6256C72.3099 63.0004 71.8104 62.3753 71.1852 62.3753ZM40.8119 39.8749H36.6868V35.7499H40.8119V39.8749ZM51.3117 50.3747H55.4367V54.4998H51.3117V50.3747ZM69.9353 69.0017H65.8103V64.8767H69.9353V69.0017Z" fill="white"/>
</svg>
