<?xml version="1.0" encoding="UTF-8"?>
<svg fill="#FFFFFF" width="100pt" height="100pt" version="1.1" viewBox="0 0 100 100" xmlns="http://www.w3.org/2000/svg">
 <g>
  <path d="m54.168 72.395h-31.25c-5.4648 0-9.8984-4.4297-9.8984-9.8945v-25c0-5.4648 4.4336-9.8945 9.8984-9.8945h31.25c2.625-0.007813 5.1484 1.0352 7.0078 2.8906 1.8633 1.8555 2.9062 4.375 2.9062 7.0039v25c0 2.6289-1.043 5.1484-2.9062 7.0039-1.8594 1.8555-4.3828 2.8984-7.0078 2.8906zm-31.25-41.668v0.003907c-3.7344 0.011719-6.7617 3.0352-6.7734 6.7695v25c0.011719 3.7344 3.0391 6.7578 6.7734 6.7695h31.25c3.7422 0 6.7773-3.0273 6.7891-6.7695v-25c-0.011719-3.7422-3.0469-6.7695-6.7891-6.7695z"/>
  <path d="m81.25 64c-1.1211 0.003906-2.2188-0.33203-3.1445-0.95703l-7.8555-5.168c-1.6172-1.0586-2.5898-2.8594-2.582-4.793v-6.25c-0.007813-1.9297 0.96484-3.7344 2.582-4.7891l7.8555-5.168c1.7578-1.1562 4.0117-1.2539 5.8672-0.25391 1.8516 1 3.0078 2.9375 3.0078 5.0469v16.664c0.019531 2.1211-1.1484 4.0742-3.0234 5.0625-0.83984 0.42188-1.7695 0.62891-2.707 0.60547zm0-24.875c-0.51172 0-1.0117 0.15234-1.4375 0.4375l-7.8555 5.168c-0.71094 0.5-1.1328 1.3164-1.125 2.1875v6.25c0.003907 0.875 0.44141 1.6953 1.168 2.1875l7.8125 5.0625c0.79688 0.53516 1.8242 0.58594 2.668 0.125 0.81641-0.44141 1.3398-1.2812 1.375-2.2109v-16.664c-0.046875-1.4102-1.1953-2.5312-2.6055-2.543z"/>
 </g>
</svg>
