<svg width="100" height="100" viewBox="0 0 100 100" fill="none" xmlns="http://www.w3.org/2000/svg">
<path d="M26.2765 34.3599L40.5071 64.8215H35.5969L32.4143 57.5471H18.1383L14.9102 64.8215H10L24.2306 34.3599H26.2765ZM25.3218 41.2706L19.8205 53.6826H30.7321L25.3218 41.2706Z" fill="white"/>
<path d="M48.1239 59.2748C49.0029 59.2748 49.7455 59.593 50.3517 60.2296C50.9882 60.8358 51.3065 61.5784 51.3065 62.4573C51.3065 63.306 50.9882 64.0486 50.3517 64.6851C49.7455 65.3217 49.0029 65.6399 48.1239 65.6399C47.2449 65.6399 46.4871 65.3217 45.8506 64.6851C45.2444 64.0486 44.9413 63.306 44.9413 62.4573C44.9413 61.5784 45.2444 60.8358 45.8506 60.2296C46.4871 59.593 47.2449 59.2748 48.1239 59.2748Z" fill="white"/>
<path d="M74.6542 60.957V64.8215H60.2872V60.957H65.4247V38.2244H60.2872V34.3599H74.6542V38.2244H69.5166V60.957H74.6542Z" fill="white"/>
<path d="M86.8174 59.2748C87.6964 59.2748 88.439 59.593 89.0452 60.2296C89.6817 60.8358 90 61.5784 90 62.4573C90 63.306 89.6817 64.0486 89.0452 64.6851C88.439 65.3217 87.6964 65.6399 86.8174 65.6399C85.9384 65.6399 85.1807 65.3217 84.5442 64.6851C83.938 64.0486 83.6349 63.306 83.6349 62.4573C83.6349 61.5784 83.938 60.8358 84.5442 60.2296C85.1807 59.593 85.9384 59.2748 86.8174 59.2748Z" fill="white"/>
</svg>
