<svg width="100" height="100" viewBox="0 0 100 100" fill="none" xmlns="http://www.w3.org/2000/svg">
<path d="M72.4915 46.7267C72.4956 41.2226 70.4794 35.906 66.8209 31.784C63.1664 27.6662 58.1258 25.032 52.6587 24.3816C47.1872 23.7312 41.6706 25.1093 37.151 28.2556C32.6307 31.4019 29.4234 36.0971 28.1307 41.451C26.8421 46.8046 27.5616 52.4465 30.1551 57.3042C32.7486 62.166 37.0331 65.9057 42.1954 67.8168V84.439C42.1954 84.7154 42.3051 84.9837 42.5002 85.1788C42.6954 85.374 42.9596 85.4837 43.236 85.4796H44.7686V88.9594C44.7686 89.2358 44.8783 89.5 45.0734 89.6951C45.2686 89.8902 45.5328 90 45.8092 90H54.1913C54.4677 90 54.7319 89.8902 54.9271 89.6951C55.1222 89.5 55.2319 89.2358 55.2319 88.9594V85.4796H56.7645C57.0409 85.4837 57.3051 85.374 57.5003 85.1788C57.6954 84.9837 57.8051 84.7154 57.8051 84.439V67.8168C62.1181 66.2274 65.8377 63.3534 68.4634 59.581C71.0894 55.8127 72.4959 51.325 72.4919 46.727L72.4915 46.7267ZM53.1501 87.9175H46.8493V85.4784H53.1461L53.1501 87.9175ZM54.1908 83.4013L44.2762 83.3972V75.0923H55.7233V83.3972L54.1908 83.4013ZM56.4346 66.0922V66.0882C56.0078 66.2304 55.7232 66.6288 55.7232 67.076V73.0109H44.2761V67.076C44.2761 66.6288 43.9916 66.2304 43.5648 66.0882C37.3778 64.0353 32.5443 59.1491 30.5609 52.9417C28.573 46.7303 29.6706 39.9503 33.512 34.6815C37.3535 29.4173 43.4794 26.3035 50 26.3035C56.5206 26.3035 62.6459 29.4173 66.488 34.6815C70.3294 39.9498 71.427 46.7301 69.4391 52.9417C67.4555 59.1489 62.6221 64.035 56.4353 66.0882L56.4346 66.0922Z" fill="white" stroke="white"/>
<path d="M51.0407 18.5325V11.0406C51.0407 10.4675 50.5732 10 50.0001 10C49.4269 10 48.9594 10.4675 48.9594 11.0406V18.5325C48.9594 19.1097 49.4269 19.5731 50.0001 19.5731C50.5732 19.5731 51.0407 19.1097 51.0407 18.5325Z" fill="white" stroke="white"/>
<path d="M85.9752 45.9795H78.4834C77.9102 45.9795 77.4427 46.4429 77.4427 47.0201C77.4427 47.5933 77.9102 48.0608 78.4834 48.0608H85.9752C86.5484 48.0608 87.0159 47.5933 87.0159 47.0201C87.0159 46.4429 86.5484 45.9795 85.9752 45.9795Z" fill="white" stroke="white"/>
<path d="M22.5572 47.02C22.5572 46.7436 22.4475 46.4753 22.2524 46.2802C22.0572 46.085 21.793 45.9753 21.5166 45.9794H14.0248C13.4516 45.9794 12.9841 46.4428 12.9841 47.02C12.9841 47.5932 13.4516 48.0606 14.0248 48.0606H21.5166C21.793 48.0606 22.0572 47.9509 22.2524 47.7558C22.4475 47.5606 22.5572 47.2924 22.5572 47.02Z" fill="white" stroke="white"/>
<path d="M30.5973 27.6131C30.7924 27.4221 30.9022 27.1538 30.9022 26.8774C30.9022 26.605 30.7924 26.3367 30.5973 26.1416L25.2964 20.8449C24.8899 20.4384 24.2314 20.4384 23.8249 20.8449C23.4183 21.2514 23.4184 21.9099 23.8249 22.3165L29.1215 27.6132H29.1256C29.3167 27.8124 29.585 27.918 29.8614 27.918C30.1337 27.918 30.402 27.8124 30.5971 27.6132L30.5973 27.6131Z" fill="white" stroke="white"/>
<path d="M76.1629 20.8491C75.9678 20.6539 75.7036 20.5442 75.4272 20.5442C75.1507 20.5442 74.8865 20.6539 74.6914 20.845L69.3622 26.1499C68.9557 26.5564 68.9516 27.2149 69.3581 27.6215C69.7605 28.028 70.4231 28.032 70.8297 27.6255L76.1589 22.3247C76.354 22.1296 76.4638 21.8653 76.4679 21.5889C76.4679 21.3125 76.3581 21.0483 76.163 20.8491L76.1629 20.8491Z" fill="white" stroke="white"/>
</svg>
