<svg width="100" height="100" viewBox="0 0 100 100" fill="none" xmlns="http://www.w3.org/2000/svg">
<path d="M10 50.0005C10.0442 59.8005 13.142 68.4552 19.1035 75.4622C19.3752 75.88 19.8134 76.1619 20.3093 76.2332C20.8018 76.308 21.3045 76.1653 21.6849 75.8426C22.0654 75.5199 22.2895 75.0478 22.2997 74.5518C22.3099 74.0525 22.1061 73.5736 21.7393 73.2339C16.3011 66.8446 13.5192 59.0861 13.4784 50C13.5192 40.914 16.3011 33.1557 21.7393 26.7662C22.1061 26.4265 22.3099 25.9476 22.2997 25.4483C22.2895 24.9524 22.0654 24.4802 21.6849 24.1575C21.3045 23.8348 20.8018 23.6921 20.3093 23.7669C19.8134 23.8382 19.3752 24.1201 19.1035 24.5379C13.1422 31.5454 10.0443 40.2005 10 49.9996V50.0005ZM25.6521 50.0005C25.6793 55.9787 27.6154 61.5796 31.2772 65.897C31.5489 66.3148 31.9871 66.5967 32.483 66.668C32.9755 66.7428 33.4782 66.6001 33.8586 66.2774C34.2391 65.9547 34.4633 65.4826 34.4735 64.9866C34.4836 64.4873 34.2798 64.0084 33.913 63.6687C30.8186 60.0206 29.1541 55.238 29.1304 50C29.1542 44.7623 30.8186 39.9801 33.913 36.3314C34.2798 35.9917 34.4836 35.5128 34.4735 35.0135C34.4633 34.5176 34.2391 34.0454 33.8586 33.7227C33.4782 33.4 32.9755 33.2573 32.483 33.3321C31.9871 33.4034 31.5489 33.6853 31.2772 34.1031C27.6155 38.4203 25.6794 44.0214 25.6521 49.9996V50.0005ZM42.1738 50.0277C42.1535 54.3279 45.6724 57.8469 49.9728 57.8266C54.2731 57.8062 57.8056 54.2736 57.826 49.9734C57.8463 45.6731 54.3002 42.1541 49.9999 42.1745C45.6997 42.1948 42.1942 45.7274 42.1738 50.0277ZM45.6521 50.0277C45.6623 47.6057 47.6052 45.6629 50.027 45.6527C52.4489 45.6425 54.3579 47.5515 54.3477 49.9734C54.3376 52.3953 52.3675 54.3382 49.9456 54.3483C47.5237 54.3585 45.6419 52.4496 45.6521 50.0277ZM65.5164 35.299C65.5741 35.6964 65.7644 36.0599 66.0599 36.3316C69.1543 39.9797 70.8459 44.7623 70.8696 50.0003C70.8458 55.238 69.1542 60.0202 66.0599 63.6689C65.7474 64.0188 65.5911 64.4807 65.6251 64.9461C65.6896 65.6459 66.1686 66.2403 66.8411 66.4475C67.5137 66.6581 68.2474 66.4373 68.6957 65.8973C72.3573 61.5801 74.3207 55.979 74.3479 50.0008C74.3207 44.0225 72.3573 38.4217 68.6957 34.1043C68.2507 33.4215 67.3914 33.1396 66.6271 33.4249C65.8628 33.7137 65.4008 34.4916 65.5164 35.2999V35.299ZM77.6903 25.7338C77.748 26.1312 77.9383 26.4947 78.2338 26.7664C83.6719 33.1557 86.4811 40.9142 86.5217 50.0003C86.481 59.0863 83.6719 66.8446 78.2338 73.2341C77.9213 73.584 77.765 74.0459 77.799 74.5113C77.8635 75.2111 78.3425 75.8055 79.015 76.0127C79.6875 76.2233 80.4212 76.0025 80.8696 75.4625C86.8309 68.455 89.9557 59.7999 90 50.0008C89.9558 40.2008 86.8309 31.546 80.8696 24.5391C80.4246 23.8563 79.5652 23.5744 78.801 23.8597C78.0367 24.1485 77.5747 24.9264 77.6903 25.7347V25.7338Z" fill="white"/>
</svg>
