<svg width="100" height="100" viewBox="0 0 100 100" fill="none" xmlns="http://www.w3.org/2000/svg">
<path d="M82.8072 30.0389H66.6211V23.6741C66.6211 23.1753 66.423 22.6941 66.0692 22.3403C65.7154 21.9865 65.2342 21.7883 64.7354 21.7883H35.2642C34.2241 21.7883 33.3785 22.6339 33.3785 23.674V30.0388H32.1438V27.0139C32.1438 26.515 31.9456 26.0339 31.5918 25.68C31.2381 25.3262 30.7569 25.1281 30.258 25.1281H18.2717C17.2316 25.1281 16.386 25.9737 16.386 27.0138V30.1201C12.7596 30.5235 10.0106 33.5802 10 37.2315V71.0192C10.0035 74.9888 13.2231 78.2084 17.1927 78.2119H82.8073C86.7769 78.2084 89.9929 74.9888 90 71.0192V37.2315C89.9965 33.2619 86.7769 30.0423 82.8073 30.0388L82.8072 30.0389ZM37.1536 25.5633H62.8461V30.0389H37.1536V25.5633ZM20.1606 28.9032H28.3722V30.0389H20.1606V28.9032ZM86.2245 71.019C86.2209 72.9083 84.6925 74.4366 82.8068 74.4366H17.1922C15.3065 74.4366 13.7781 72.9083 13.7745 71.019V37.2312C13.7781 35.342 15.3065 33.8136 17.1922 33.8136H82.8068C84.6925 33.8136 86.2209 35.342 86.2245 37.2312V71.019Z" fill="white"/>
<path d="M49.9995 39.3723C46.0865 39.3723 42.3327 40.9254 39.5656 43.6921C36.7989 46.4588 35.2422 50.2126 35.2422 54.126C35.2422 58.039 36.799 61.7927 39.5656 64.5599C42.3323 67.3265 46.086 68.8797 49.9995 68.8797C53.9129 68.8797 57.6662 67.3265 60.4333 64.5599C63.2 61.7932 64.7531 58.0394 64.7531 54.126C64.7496 50.213 63.1929 46.4628 60.4298 43.6994C57.6631 40.9327 53.9129 39.376 49.9995 39.3725L49.9995 39.3723ZM49.9995 65.1074C45.5594 65.1074 41.5544 62.4327 39.8527 58.3286C38.1545 54.2246 39.0921 49.5014 42.2337 46.3596C45.3755 43.2214 50.0986 42.2803 54.2028 43.9821C58.3068 45.6803 60.9815 49.6853 60.9815 54.1252C60.9745 60.1857 56.0602 65.0998 49.9997 65.107L49.9995 65.1074Z" fill="white"/>
</svg>
