<svg width="100" height="100" viewBox="0 0 100 100" fill="none" xmlns="http://www.w3.org/2000/svg">
<path d="M50.0002 10C41.2871 10 34.2105 17.0766 34.2105 25.7896V51.0531C34.2105 59.7661 41.2871 66.8427 50.0002 66.8427C58.7132 66.8427 65.7898 59.7661 65.7898 51.0531V25.7896C65.7898 17.0766 58.7132 10 50.0002 10ZM50.0002 14.2106C56.4517 14.2106 61.5792 19.3381 61.5792 25.7896V51.0531C61.5792 57.5046 56.4517 62.6321 50.0002 62.6321C43.5486 62.6321 38.4211 57.5046 38.4211 51.0531V25.7896C38.4211 19.3381 43.5486 14.2106 50.0002 14.2106ZM26.8747 44.7162C25.7521 44.6997 24.72 45.7318 24.7365 46.8543V51.0854C24.7365 64.3424 34.9176 75.1856 47.8947 76.2499V85.7894H39.4735C38.3098 85.7894 37.3682 86.7311 37.3682 87.8947C37.3682 89.0584 38.3099 90 39.4735 90H60.5264C61.6901 90 62.6317 89.0584 62.6317 87.8947C62.6317 86.7311 61.69 85.7894 60.5264 85.7894H52.1052V76.2499C65.0822 75.1849 75.2634 64.3424 75.2634 51.0854V46.8543C75.2798 45.7441 74.2724 44.7203 73.1581 44.7203C72.0438 44.7203 71.0364 45.7441 71.0528 46.8543V51.0854C71.0528 62.7834 61.6983 72.1382 50 72.1382C38.3016 72.1382 28.9471 62.7837 28.9471 51.0854V46.8543C28.9635 45.7523 27.9767 44.7326 26.8747 44.7162V44.7162Z" fill="white"/>
</svg>
