<svg width="100" height="100" viewBox="0 0 100 100" fill="none" xmlns="http://www.w3.org/2000/svg">
<path d="M44.9984 15H48.3316V18.3332H44.9984V15Z" fill="white"/>
<path d="M55.0013 15H58.3345V18.3332H55.0013V15Z" fill="white"/>
<path d="M15 15V38.3323H38.3323V15H15ZM34.9989 34.9989H18.3327V18.3327H34.9989V34.9989Z" fill="white"/>
<path d="M48.3318 18.3333H55.0009V21.6664H58.334V24.9996H51.6677V21.6664H48.3318V18.3333Z" fill="white"/>
<path d="M61.6674 15V38.3323H84.9997V15H61.6674ZM81.6663 34.9989H65V18.3327H81.6663V34.9989Z" fill="white"/>
<path d="M21.6663 21.6663H31.6658V31.6657H21.6663V21.6663Z" fill="white"/>
<path d="M41.6656 21.6663H44.9988V24.9994H48.332V28.3326H55.0011V31.6658H58.3343V41.6653H55.0011V44.9984H58.3343V48.3316H51.6679V51.6675H48.332V44.9984H51.6679V41.6653H48.332V44.9984H44.9988V38.3321H48.332V31.6657H44.9988V28.3325H41.6656V21.6663Z" fill="white"/>
<path d="M68.3314 21.6663H78.3309V31.6657H68.3314V21.6663Z" fill="white"/>
<path d="M41.6656 34.999H44.9988V38.3322H41.6656V34.999Z" fill="white"/>
<path d="M24.9994 41.6658H31.6658V44.9989H34.999V48.3321H38.3321V51.668H34.999V55.0012H38.3321V51.668H41.6653V55.0012H44.9985V58.3344H51.6676V55.0012H55.0008V61.6676H51.6676V65.0007H41.6653V58.3344H24.9991V55.0012H28.3323V51.668H31.6654V48.3321H28.3323V44.9989H24.9991L24.9994 41.6658Z" fill="white"/>
<path d="M34.9989 41.6658H41.6653V44.9989H34.9989V41.6658Z" fill="white"/>
<path d="M71.6669 41.6658H78.3332V44.9989H75V51.668H71.6669V48.3321H68.331V51.668H71.6669V55.0012H78.3332V51.668H81.6664V55.0012H84.9996V58.3344H81.6664V61.6676H78.3332V65.0007H84.9996V71.6671H81.6664V68.3312H78.3332V71.6671H75V65.0007H71.6669V61.6676H75V58.3344H65.0006V61.6676H58.3342V51.6681H65.0006V48.3322H61.6674V44.999H71.6669V41.6658Z" fill="white"/>
<path d="M15 44.9983H21.6664V48.3315H28.3327V51.6674H21.6664V55.0006H18.3332V48.3315H15V44.9983Z" fill="white"/>
<path d="M41.6656 44.9983H44.9988V51.6646H41.6656V44.9983Z" fill="white"/>
<path d="M81.6663 44.9983H84.9994V51.6646H81.6663V44.9983Z" fill="white"/>
<path d="M15 55.0015H18.3332V58.3346H15V55.0015Z" fill="white"/>
<path d="M15 61.6675V84.9998H38.3323V61.6675H15ZM34.9989 81.6664H18.3327V65.0002H34.9989V81.6664Z" fill="white"/>
<path d="M55.0013 65.0007H58.3345V68.3339H55.0013V65.0007Z" fill="white"/>
<path d="M21.6663 68.3313H31.6658V78.3308H21.6663V68.3313Z" fill="white"/>
<path d="M41.6656 68.3313H44.9988V71.6672H48.332V75.0004H51.6679V78.3336H55.0011V81.6667H48.332V84.9999H44.9988V75.0005H41.6656V68.3313Z" fill="white"/>
<path d="M48.3318 68.3313H54.9981V71.6645H48.3318V68.3313Z" fill="white"/>
<path d="M61.6674 68.3313H65.0005V71.6672H68.331V68.3313H71.6669V75.0004H75.0001V81.6667H71.6669V78.3336H68.331V81.6667H71.6669V84.9999H65.0005V75.0005H61.6674V68.3313Z" fill="white"/>
<path d="M78.3336 75.0002H85V81.6666H78.3336V75.0002Z" fill="white"/>
<path d="M58.334 78.3337H61.6672V81.6669H58.334V78.3337Z" fill="white"/>
<path d="M55.0013 81.6663H58.3345V84.9994H55.0013V81.6663Z" fill="white"/>
<path d="M75.0002 81.6663H78.3334V84.9994H75.0002V81.6663Z" fill="white"/>
</svg>
