<svg width="100" height="100" viewBox="0 0 100 100" fill="none" xmlns="http://www.w3.org/2000/svg">
<path d="M65.8523 10H34.1478C30.9639 10 28.3853 12.5787 28.3853 15.7625V84.2375C28.3853 87.4213 30.964 90 34.1478 90H65.8487C69.0325 90 71.6112 87.4213 71.6112 84.2375L71.6147 15.7625C71.6147 12.5787 69.036 10 65.8522 10H65.8523ZM49.9996 87.4532C47.9274 87.4532 46.2458 85.7751 46.2458 83.703C46.2458 81.6308 47.9239 79.9492 49.9996 79.9492C52.0717 79.9492 53.7498 81.6273 53.7498 83.703C53.7498 85.7716 52.0717 87.4532 49.9996 87.4532ZM68.0119 75.2354C68.0119 76.428 67.041 77.3955 65.8519 77.3955H34.1474C32.9548 77.3955 31.9874 76.4245 31.9874 75.2354V15.7631C31.9874 14.574 32.9583 13.603 34.1474 13.603H65.8483C67.0409 13.603 68.0119 14.574 68.0119 15.7631L68.0119 75.2354Z" fill="white"/>
</svg>
