<svg width="100" height="100" viewBox="0 0 100 100" fill="none" xmlns="http://www.w3.org/2000/svg">
<path d="M62.5001 68.7505H65.0001V71.2505H62.5001V68.7505Z" fill="white"/>
<path d="M42.5002 52.5002H45.0002V55.0002H42.5002V52.5002Z" fill="white"/>
<path d="M78.6064 49.6345C76.2189 45.647 72.8314 42.3064 68.8193 39.969C67.0568 38.9408 65.1849 38.119 63.2443 37.5127C61.0224 36.8128 58.6787 36.3878 56.2537 36.2815L56.2505 24.9999H61.2505C66.763 24.9999 71.2505 20.5124 71.2505 15V11.25C71.2505 10.5594 70.6911 10 70.0005 10H61.2501C57.1314 10 53.4908 12.5344 51.9846 16.2375C50.6721 15.4531 49.1377 15 47.5002 15H40.0002C39.3096 15 38.7502 15.5593 38.7502 16.25V18.75C38.7502 23.5749 42.6752 27.5003 47.5006 27.5003H53.7505V36.2787C47.3193 36.5693 41.213 39.0911 36.441 43.4568C31.3942 48.0724 28.2627 54.3503 27.6227 61.1319L30.1102 61.3663C30.6914 55.2038 33.5383 49.4975 38.1285 45.2976C40.5223 43.1069 43.2879 41.4257 46.2693 40.3163L46.3443 46.3194C46.3724 48.3507 48.0443 50.0007 50.0725 50.0007H54.5537C56.2599 50.0007 57.7475 48.8444 58.1631 47.1913L58.1724 47.1538C58.2662 46.7851 58.5193 46.4851 58.8693 46.332C59.2193 46.1789 59.613 46.1976 59.9474 46.3789L61.863 47.4257C62.2568 47.6414 62.5005 48.0539 62.5005 48.5008V53.982C62.5005 55.6039 63.5349 57.0258 65.0787 57.5258L70.5599 59.3008C70.9412 59.4258 71.3287 59.482 71.7131 59.482C73.0568 59.482 74.338 58.757 75.0068 57.5258L77.5224 52.9071C79.1099 56.1884 80.0005 59.8664 80.0005 63.7511C80.0005 64.5917 79.9568 65.4261 79.8755 66.251H73.4193C71.5662 66.251 69.9693 67.6354 69.7069 69.4698L69.4787 71.0729L71.9538 71.426L72.1819 69.8229C72.2694 69.2104 72.8006 68.7478 73.4194 68.7478H79.4975C79.3194 69.6197 79.0975 70.4791 78.8288 71.3229C78.8225 71.3385 78.8194 71.3541 78.8132 71.3666C78.81 71.3791 78.8038 71.3916 78.8007 71.4072C76.8444 77.4635 72.5913 82.6544 66.9039 85.7384L68.0977 87.9352C74.5945 84.4103 79.2912 78.5105 81.3472 71.6417C81.7347 70.3511 82.0316 69.023 82.2222 67.673C82.2254 67.6511 82.2285 67.6293 82.2285 67.6043C82.4066 66.3356 82.5004 65.048 82.5004 63.7449C82.5004 58.645 81.1066 53.8666 78.6785 49.7698C78.6567 49.7292 78.6317 49.6823 78.6067 49.6354L78.6064 49.6345ZM61.2505 12.5003H68.7505V15.0003C68.7505 19.1347 65.3849 22.5003 61.2505 22.5003H56.163C55.9224 20.8003 55.1912 19.2252 54.0412 17.9347C54.9506 14.7503 57.8881 12.5003 61.2505 12.5003V12.5003ZM47.5002 25.0002C44.0533 25.0002 41.2502 22.1971 41.2502 18.7503V17.5003H47.5002C50.9471 17.5003 53.7502 20.3034 53.7502 23.7503V25.0002H47.5002ZM72.8129 56.3313C72.5254 56.8594 71.9004 57.1063 71.3316 56.9219L65.8503 55.1469C65.3441 54.9813 65.0035 54.5156 65.0035 53.9813V48.5C65.0035 47.1376 64.2597 45.8845 63.0628 45.2313L61.1472 44.1845C60.5879 43.8782 59.9785 43.7251 59.3629 43.7251C58.8566 43.7251 58.3504 43.8282 57.8691 44.0376C56.8066 44.5032 56.0316 45.4126 55.7473 46.5376L55.7379 46.5751C55.6004 47.1188 55.1129 47.5 54.5504 47.5H50.0691C49.4035 47.5 48.8535 46.9563 48.8442 46.2907L48.7598 39.572C50.8285 39.0345 52.966 38.7595 55.1191 38.7533C57.4691 38.7658 59.7973 39.1064 62.0316 39.7595C67.8909 41.4782 72.8627 45.2908 76.0787 50.3283L72.8129 56.3313Z" fill="white"/>
<path d="M55.0186 68.556C55.1436 68.5685 55.2686 68.5747 55.3936 68.5747C56.3842 68.5747 57.3311 68.1841 58.0405 67.4747L59.8842 65.631C60.8092 64.706 61.1873 63.3403 60.8717 62.0685L60.5905 60.9498C60.3405 59.956 59.7155 59.1248 58.828 58.6123C57.9406 58.0997 56.9093 57.9716 55.9218 58.2529L52.95 59.1029C51.7844 59.4341 50.8781 60.2779 50.4593 61.4154C50.0406 62.5529 50.1875 63.7809 50.8593 64.7904L52.2687 66.9029C52.8937 67.8435 53.8968 68.4466 55.0187 68.556L55.0186 68.556ZM52.8061 62.2809C52.9468 61.9028 53.2468 61.6216 53.6374 61.5091L56.6092 60.6591C56.7249 60.6278 56.8405 60.6091 56.9561 60.6091C57.1717 60.6091 57.3874 60.6653 57.578 60.7778C57.8748 60.9497 58.0811 61.2247 58.1655 61.556L58.4467 62.6747C58.553 63.0997 58.428 63.5528 58.1186 63.8622L56.2749 65.7059C56.0092 65.9716 55.6405 66.1028 55.2686 66.0653C54.8936 66.0278 54.5592 65.8278 54.353 65.5153L52.9437 63.4028C52.7155 63.0716 52.6687 62.6591 52.8062 62.281L52.8061 62.2809Z" fill="white"/>
<path d="M64.6593 79.9001L69.1999 77.9533C70.3937 77.4408 71.2499 76.322 71.4343 75.0377L71.5937 73.9283L69.1187 73.5752L68.9593 74.6846C68.8968 75.1127 68.6124 75.4845 68.2155 75.6564L63.6749 77.6033L64.6593 79.9001Z" fill="white"/>
<path d="M56.2498 80H45.009C46.0622 77.7812 45.7403 75.0625 44.0059 73.1375L40.1184 68.8188C37.234 65.6126 32.9466 63.9344 28.6529 64.3251L21.1936 65.0001H12.5V67.5001H21.2504C21.2879 67.5001 21.3254 67.4969 21.3629 67.4938L28.8784 66.8094C32.3909 66.4907 35.8971 67.8657 38.26 70.4876L42.1475 74.8094C43.3787 76.1781 43.4225 78.2094 42.3162 79.625L35.6913 75.2094L34.3038 77.2907L41.8037 82.2906C42.0162 82.4313 42.2569 82.5 42.4975 82.5H56.2478C57.9072 82.5 59.4603 83.15 60.626 84.3313C61.4947 85.2126 62.0666 86.3094 62.2916 87.5H40.4165L21.835 77.6472C21.6568 77.5504 21.4537 77.5004 21.2506 77.5004H12.5002V80.0004H20.9378L39.5161 89.8531C39.6973 89.95 39.8973 90 40.1005 90H63.6412C64.3255 90 64.8818 89.45 64.8911 88.7687C64.9224 86.4374 64.0412 84.2374 62.4005 82.5781C60.7692 80.9156 58.5818 79.9999 56.2505 79.9999L56.2498 80Z" fill="white"/>
<path d="M85 26.25H87.5V28.75H85V26.25Z" fill="white"/>
<path d="M80 26.25H82.5V28.75H80V26.25Z" fill="white"/>
<path d="M82.5 23.7507H85V26.2507H82.5V23.7507Z" fill="white"/>
<path d="M82.5 28.7507H85V31.2507H82.5V28.7507Z" fill="white"/>
<path d="M28.7507 36.2498H31.2507V38.7497H28.7507V36.2498Z" fill="white"/>
<path d="M23.7507 36.2498H26.2507V38.7497H23.7507V36.2498Z" fill="white"/>
<path d="M26.2499 33.7507H28.7499V36.2507H26.2499V33.7507Z" fill="white"/>
<path d="M26.2499 38.7507H28.7499V41.2507H26.2499V38.7507Z" fill="white"/>
</svg>
