<svg width="500" height="381" viewBox="0 0 500 381" fill="none" xmlns="http://www.w3.org/2000/svg">
<g clip-path="url(#clip0)">
<path d="M366.217 183.671L358.828 216.906L352.83 243.867L348.049 265.37L342.054 292.331L322.466 380.414L79.7408 268.255L61.899 260.009L39.315 249.572L21.4672 241.326L0 231.405L12.1698 213.699L22.2904 198.976L35.0931 180.349L45.2099 165.635L159.059 0L279.664 106.933L301.141 125.975L318.267 141.159L339.746 160.2L366.217 183.671Z" fill="#F2F2F2"/>
<path d="M275.296 225.529L287.834 247.246L300.372 268.962H275.296H250.22L262.758 247.246L275.296 225.529Z" fill="#97CAB6"/>
<path d="M204.048 182.876H151.466V235.458H204.048V182.876Z" fill="#2A5D49"/>
<path d="M241.74 149.372C260.373 149.372 275.477 134.267 275.477 115.635C275.477 97.003 260.373 81.8986 241.74 81.8986C223.108 81.8986 208.004 97.003 208.004 115.635C208.004 134.267 223.108 149.372 241.74 149.372Z" fill="#97CAB6"/>
<path d="M272.103 171.966C272.103 170.862 272.431 169.782 273.044 168.864C273.658 167.946 274.53 167.23 275.55 166.807C276.571 166.385 277.694 166.274 278.777 166.49C279.86 166.705 280.855 167.237 281.636 168.018C282.417 168.799 282.949 169.794 283.164 170.877C283.38 171.96 283.269 173.083 282.846 174.103C282.424 175.124 281.708 175.996 280.79 176.609C279.871 177.223 278.792 177.55 277.687 177.55C276.207 177.549 274.788 176.96 273.741 175.913C272.694 174.866 272.105 173.447 272.103 171.966V171.966ZM273.034 171.966C273.034 172.887 273.307 173.786 273.818 174.552C274.33 175.317 275.056 175.913 275.907 176.265C276.757 176.618 277.693 176.71 278.595 176.53C279.498 176.351 280.327 175.908 280.978 175.257C281.629 174.606 282.072 173.777 282.251 172.874C282.431 171.972 282.339 171.036 281.987 170.186C281.634 169.335 281.038 168.609 280.273 168.097C279.507 167.586 278.608 167.313 277.687 167.313C276.454 167.314 275.271 167.805 274.399 168.678C273.526 169.55 273.035 170.733 273.034 171.966V171.966Z" fill="#2A5D49"/>
<path d="M224.028 269.099L215.808 260.286L224.621 252.067L232.84 260.879L224.028 269.099ZM217.118 260.332L224.073 267.789L231.53 260.834L224.575 253.377L217.118 260.332Z" fill="#2A5D49"/>
<path d="M156.144 143.735L149.455 136.563L156.627 129.873L163.317 137.045L156.144 143.735ZM150.521 136.6L156.181 142.669L162.25 137.008L156.59 130.939L150.521 136.6Z" fill="#2A5D49"/>
<path d="M500 379.711H209.632V380.642H500V379.711Z" fill="#2A5D49"/>
<path d="M250.116 153.56C240.913 153.56 231.916 150.831 224.264 145.718C216.611 140.604 210.647 133.337 207.125 124.834C203.603 116.331 202.682 106.975 204.477 97.9483C206.273 88.9218 210.705 80.6303 217.212 74.1225C223.72 67.6147 232.012 63.1829 241.038 61.3874C250.065 59.5919 259.421 60.5134 267.924 64.0354C276.427 67.5574 283.694 73.5217 288.807 81.174C293.92 88.8264 296.65 97.8231 296.65 107.027C296.636 119.364 291.729 131.191 283.005 139.915C274.281 148.639 262.453 153.546 250.116 153.56V153.56ZM250.116 61.4239C241.097 61.4239 232.28 64.0985 224.781 69.1093C217.282 74.1202 211.437 81.2424 207.985 89.5752C204.533 97.9079 203.63 107.077 205.39 115.923C207.15 124.769 211.493 132.895 217.87 139.272C224.248 145.65 232.374 149.993 241.22 151.753C250.066 153.512 259.235 152.609 267.568 149.158C275.9 145.706 283.023 139.861 288.033 132.362C293.044 124.863 295.719 116.046 295.719 107.027C295.705 94.9361 290.896 83.3449 282.347 74.7957C273.798 66.2465 262.207 61.4375 250.116 61.4239V61.4239Z" fill="#2A5D49"/>
<path d="M221.469 143.231L209.448 168.249L210.287 168.652L222.308 143.635L221.469 143.231Z" fill="#2A5D49"/>
<path d="M218.695 201.545L218.252 202.364L271.201 231.019L271.644 230.201L218.695 201.545Z" fill="#2A5D49"/>
<path d="M218.939 235.924H151V167.985H218.939V235.924ZM151.931 234.993H218.008V168.916H151.931V234.993Z" fill="#2A5D49"/>
<path d="M319.688 269.428H249.414L284.551 208.569L319.688 269.428ZM251.026 268.497H318.076L284.551 210.43L251.026 268.497Z" fill="#2A5D49"/>
<path d="M408.329 168.45C414.754 168.45 419.963 163.242 419.963 156.817C419.963 150.392 414.754 145.184 408.329 145.184C401.905 145.184 396.696 150.392 396.696 156.817C396.696 163.242 401.905 168.45 408.329 168.45Z" fill="#A0616A"/>
<path d="M414.379 162.866C414.379 162.866 415.775 176.826 418.101 179.153C420.428 181.48 401.815 177.757 401.815 177.757C401.815 177.757 404.607 166.124 402.745 164.262C400.884 162.401 414.379 162.866 414.379 162.866Z" fill="#A0616A"/>
<path d="M422.522 186.366C422.522 186.366 428.106 202.187 429.502 211.959C430.898 221.731 430.898 225.919 430.898 225.919C430.898 225.919 436.947 244.532 435.086 253.374C435.086 253.374 442.066 274.314 436.017 274.314C429.967 274.314 428.106 257.096 428.106 257.096L418.799 212.89L422.522 186.366Z" fill="#A0616A"/>
<path d="M425.314 193.811C425.314 193.811 423.918 176.594 417.869 175.198C414.981 174.531 410.29 173.547 406.176 172.7C399.009 171.224 391.616 174.624 388.358 181.176C387.747 182.364 387.341 183.647 387.157 184.97C386.226 192.415 381.573 192.415 385.761 202.187C389.949 211.959 389.018 222.196 389.018 222.196L391.81 246.859C391.81 246.859 380.177 279.432 381.108 301.303L370.405 354.816C370.405 354.816 372.732 360.4 379.246 357.608C379.246 357.608 395.533 330.154 394.137 310.144L410.889 272.918C410.889 272.918 422.522 308.283 425.779 311.54L434.155 361.796C434.155 361.796 442.066 364.123 445.789 361.796C445.789 361.796 447.185 313.402 439.274 305.491C439.274 305.491 431.363 271.987 433.225 263.146C435.086 254.304 435.551 240.81 421.591 228.711C421.591 228.711 423.453 223.592 417.403 220.8L422.057 205.91L425.314 193.811Z" fill="#2F2E41"/>
<path d="M396.128 173.98C396.003 173.962 395.875 173.947 395.744 173.935C391.623 173.563 388.076 176.853 387.892 180.986L387.157 197.534L384.365 215.682L378.315 254.77C378.315 254.77 366.682 268.73 374.593 269.66C382.503 270.591 383.899 254.304 383.899 254.304L394.137 223.592L398.325 195.207C398.325 195.207 403.21 190.322 401.177 179.03C400.969 177.766 400.371 176.599 399.465 175.693C398.559 174.787 397.392 174.188 396.128 173.98V173.98Z" fill="#A0616A"/>
<path d="M369.474 352.955L366.217 369.707C366.217 369.707 358.306 373.429 363.425 378.083C368.544 382.736 375.524 377.152 375.524 377.152L377.385 371.568L376.92 379.944H378.316L379.712 371.568C379.712 371.568 382.504 366.449 380.642 362.261V356.677L369.474 352.955Z" fill="#2F2E41"/>
<path d="M432.992 354.583L431.131 369.939C431.131 369.939 423.22 373.662 428.339 378.315C433.457 382.969 440.437 377.385 440.437 377.385L442.299 371.801L441.833 380.177H443.229L444.625 371.801C444.625 371.801 447.417 366.682 445.556 362.494V356.91L432.992 354.583Z" fill="#2F2E41"/>
<path d="M414.398 138.836H414.398C413.745 138.837 413.095 138.902 412.455 139.029C411.298 138.468 410.03 138.176 408.745 138.174H408.408C401.916 138.174 396.654 144.049 396.654 151.295V151.295H398.829L399.18 148.621L399.695 151.295H401.507C400.944 153.44 400.661 155.65 400.666 157.868V171.223H403.955L405.859 166.275L405.383 171.223H426.522L428.253 166.725L427.82 171.223H430.2V160.737C430.2 148.642 423.125 138.836 414.398 138.836Z" fill="#2F2E41"/>
<path d="M479.871 224.077H478.998V380.077H479.871V224.077Z" fill="#2A5D49"/>
<path d="M479.603 366.708C488.998 366.708 496.614 349.327 496.614 327.887C496.614 306.448 488.998 289.067 479.603 289.067C470.208 289.067 462.592 306.448 462.592 327.887C462.592 349.327 470.208 366.708 479.603 366.708Z" fill="#2A5D49"/>
<path d="M479.603 278.163C488.998 278.163 496.614 260.783 496.614 239.343C496.614 217.903 488.998 200.523 479.603 200.523C470.208 200.523 462.592 217.903 462.592 239.343C462.592 260.783 470.208 278.163 479.603 278.163Z" fill="#2A5D49"/>
<path d="M480.021 207.627L479.185 207.376C479.238 207.2 484.366 189.625 475.945 178.311C471.189 171.922 463.027 168.682 451.687 168.682V167.809C463.32 167.809 471.718 171.168 476.647 177.794C485.329 189.462 480.075 207.447 480.021 207.627Z" fill="#2A5D49"/>
<path d="M451.687 179.15C457.71 179.15 462.592 174.268 462.592 168.245C462.592 162.223 457.71 157.341 451.687 157.341C445.665 157.341 440.783 162.223 440.783 168.245C440.783 174.268 445.665 179.15 451.687 179.15Z" fill="#F2F2F2"/>
</g>
<defs>
<clipPath id="clip0">
<rect width="500" height="380.642" fill="white"/>
</clipPath>
</defs>
</svg>
