<svg width="100" height="100" viewBox="0 0 100 100" fill="none" xmlns="http://www.w3.org/2000/svg">
<path d="M58.7785 50.0008H52.8625L51.044 44.1867H51.0477C50.9044 43.7264 50.478 43.4133 49.9989 43.4133C49.5198 43.4133 49.0934 43.7264 48.9501 44.1867L47.1353 50.0008H41.2194C40.7477 50.0008 40.3289 50.2988 40.178 50.744C40.0271 51.1893 40.178 51.6797 40.5478 51.9664L45.3621 55.6677L43.4643 61.7459C43.321 62.2024 43.4907 62.7004 43.8831 62.9758C44.2755 63.2475 44.7999 63.2362 45.1811 62.9456L49.9991 59.2369L54.8172 62.9419V62.9456C55.1982 63.2362 55.7227 63.2475 56.1151 62.9758C56.5075 62.7004 56.6773 62.2024 56.5339 61.7459L54.6361 55.6677L59.4504 51.9665C59.8202 51.6797 59.9711 51.1892 59.8202 50.7441C59.6692 50.2988 59.2505 50.0008 58.7789 50.0008L58.7785 50.0008ZM52.689 54.3963C52.3267 54.6792 52.1758 55.1546 52.3117 55.5961L53.402 59.0898L50.6667 56.9845C50.2743 56.6789 49.7235 56.6789 49.3311 56.9845L46.5957 59.0898L47.6861 55.5961C47.8219 55.1546 47.671 54.6792 47.3088 54.3963L44.4452 52.1967H47.9427C48.4219 52.1967 48.8445 51.8835 48.9878 51.427L49.999 48.1936L51.0101 51.427C51.1535 51.8835 51.5761 52.1967 52.0552 52.1967H55.5527L52.689 54.3963ZM84.0227 50.0008H78.1068L76.2882 44.1867C76.1486 43.7264 75.7223 43.4133 75.2432 43.4133C74.764 43.4133 74.3377 43.7264 74.1943 44.1867L72.3796 50.0008H66.4636C65.992 50.0008 65.5732 50.2988 65.4223 50.744C65.2714 51.1893 65.4185 51.6797 65.792 51.9664L70.6063 55.6677L68.7086 61.7459C68.5652 62.2024 68.735 62.7004 69.1274 62.9758C69.5198 63.2475 70.0442 63.2362 70.4253 62.9456L75.2434 59.2369L80.0614 62.9419V62.9456C80.4425 63.2362 80.9669 63.2475 81.3593 62.9758C81.7517 62.7004 81.9215 62.2024 81.7781 61.7459L79.8804 55.6677L84.6947 51.9665C85.0644 51.6797 85.2153 51.1892 85.0644 50.7441C84.9097 50.2988 84.4947 50.0008 84.0231 50.0008L84.0227 50.0008ZM77.9332 54.3963C77.571 54.6792 77.4201 55.1546 77.5559 55.5961L78.6463 59.0898L75.911 56.9845C75.5186 56.6789 74.9677 56.6789 74.5716 56.9845L71.8362 59.0898L72.9266 55.5961H72.9304C73.0662 55.1546 72.9153 54.6792 72.5531 54.3963L69.6895 52.1967H73.1832C73.6661 52.1967 74.0887 51.8835 74.2321 51.427L75.2432 48.1936L76.2544 51.427C76.3978 51.8835 76.8203 52.1967 77.2995 52.1967H80.797L77.9332 54.3963ZM32.4359 50.0008H26.52L24.7014 44.1867H24.7052C24.5618 43.7264 24.1355 43.4133 23.6564 43.4133C23.1772 43.4133 22.7509 43.7264 22.6075 44.1867L20.7928 50.0008H14.8768C14.4052 50.0008 13.9902 50.2988 13.8355 50.744C13.6846 51.1893 13.8355 51.6797 14.2052 51.9664L19.0195 55.6677L17.1218 61.7459C16.9784 62.2024 17.1482 62.7004 17.5406 62.9758C17.933 63.2475 18.4612 63.2362 18.8385 62.9456L23.6566 59.2369L28.4746 62.9419V62.9456C28.8557 63.2362 29.3801 63.2475 29.7725 62.9758C30.1649 62.7004 30.3347 62.2024 30.1913 61.7459L28.2936 55.6677L33.1079 51.9665C33.4814 51.6797 33.6285 51.1892 33.4776 50.7441C33.3267 50.2988 32.9079 50.0008 32.4363 50.0008L32.4359 50.0008ZM26.3464 54.3963H26.3502C25.9842 54.6792 25.8333 55.1546 25.9691 55.5961L27.0595 59.0898L24.3279 56.9845C23.9317 56.6789 23.3809 56.6789 22.9885 56.9845L20.2532 59.0898L21.3436 55.5961C21.4794 55.1546 21.3285 54.6792 20.9663 54.3963L18.1027 52.1967H21.6002C22.0793 52.1967 22.5019 51.8835 22.6452 51.427L23.6564 48.1936L24.6676 51.427C24.811 51.8835 25.2335 52.1967 25.7164 52.1967H29.2102L26.3464 54.3963ZM42.3171 41.2208C42.6642 41.2208 42.9924 41.0548 43.1999 40.7719C43.4074 40.4927 43.4678 40.1267 43.3622 39.7947L41.4644 33.7165L46.2787 30.0152C46.6484 29.7285 46.7994 29.238 46.6484 28.7928C46.4975 28.3476 46.0787 28.0496 45.6071 28.0496H39.6912L37.8726 22.2355L37.8764 22.2318C37.733 21.7752 37.3067 21.4621 36.8276 21.4621C36.3484 21.4621 35.9221 21.7752 35.7787 22.2318L33.964 28.0496H28.048C27.5764 28.0496 27.1614 28.3476 27.0067 28.7928C26.8558 29.238 27.0067 29.7285 27.3765 30.0152L32.1907 33.7165L30.293 39.7947C30.1496 40.2512 30.3194 40.7492 30.7118 41.0246C31.1042 41.2963 31.6286 41.2849 32.0097 40.9907L36.8278 37.2857L41.6458 40.9907C41.8382 41.1416 42.0722 41.2208 42.3174 41.2208L42.3171 41.2208ZM37.499 35.0333V35.0295C37.1028 34.7277 36.552 34.7277 36.1596 35.0295L33.4243 37.1348L34.5147 33.6411C34.6505 33.2034 34.4996 32.7242 34.1374 32.445L31.2738 30.2455H34.7713C35.2504 30.2455 35.673 29.9323 35.8163 29.4758L36.8275 26.2423L37.8387 29.4758C37.9821 29.9323 38.4046 30.2455 38.8875 30.2455H42.3813L39.5177 32.4488L39.5214 32.445C39.1554 32.7242 39.0045 33.2034 39.1404 33.6411L40.2307 37.1348L37.499 35.0333ZM68.656 41.2208C69.0069 41.2208 69.3352 41.0548 69.5427 40.7719C69.7502 40.4927 69.8105 40.1267 69.7049 39.7947L67.8072 33.7165L72.6215 30.0152C72.9912 29.7285 73.1421 29.238 72.9912 28.7928C72.8365 28.3476 72.4215 28.0496 71.9499 28.0496H66.0339L64.2154 22.2355V22.2318C64.0758 21.7752 63.6495 21.4621 63.1703 21.4621C62.6912 21.4621 62.2648 21.7752 62.1215 22.2318L60.3067 28.0496H54.3908C53.9191 28.0496 53.5003 28.3476 53.3495 28.7928C53.1985 29.238 53.3457 29.7285 53.7192 30.0152L58.5335 33.7165L56.6357 39.7947C56.4924 40.2512 56.6622 40.7492 57.0545 41.0246C57.4469 41.2963 57.9714 41.2849 58.3525 40.9907L63.1705 37.2857L67.9886 40.9907C68.181 41.1416 68.4149 41.2208 68.6564 41.2208L68.656 41.2208ZM63.838 35.0333V35.0295C63.4456 34.7277 62.8948 34.7277 62.4986 35.0295L59.7633 37.1348L60.8536 33.6411H60.8574C60.9932 33.2034 60.8423 32.7242 60.4801 32.445L57.6165 30.2455H61.1102C61.5932 30.2455 62.0158 29.9323 62.1591 29.4758L63.1703 26.2423L64.1814 29.4758C64.3248 29.9323 64.7474 30.2455 65.2265 30.2455H68.724L65.8604 32.4488V32.445C65.4982 32.7242 65.3473 33.2034 65.4831 33.6411L66.5735 37.1348L63.838 35.0333ZM87.3173 13.7803H12.6817C8.44091 13.784 5.00377 17.2212 5 21.4619V67.5629C5.00377 71.8037 8.44091 75.2408 12.6817 75.2446H39.3001L49.1964 85.8691C49.4039 86.0917 49.6944 86.22 50 86.22C50.3056 86.22 50.5961 86.0917 50.8036 85.8691L60.6999 75.2446H87.3183C91.5591 75.2408 94.9962 71.8037 95 67.5629V21.4619C94.9962 17.2212 91.5591 13.784 87.3183 13.7803H87.3173ZM92.8069 67.5638H92.8032C92.8032 70.5896 90.3469 73.0459 87.3173 73.0496H60.2198C59.9142 73.0496 59.6237 73.1779 59.4162 73.4005L49.999 83.5122L40.5817 73.3966V73.4004C40.3742 73.1778 40.0837 73.0495 39.7781 73.0495H12.6806C9.65099 73.0458 7.19478 70.5896 7.19478 67.5637V21.4627C7.19478 18.4331 9.65099 15.9806 12.6806 15.9769H87.3163C90.3459 15.9806 92.8021 18.4331 92.8021 21.4627L92.8069 67.5638Z" fill="white"/>
</svg>
